<svg id="Layer_1" data-name="Layer 1" xmlns="http://www.w3.org/2000/svg" xmlns:xlink="http://www.w3.org/1999/xlink" viewBox="0 0 601.62 449.73"><defs><style>.cls-1{fill:url(#linear-gradient);}.cls-2{fill:#2178bd;}.cls-12,.cls-2,.cls-3,.cls-4,.cls-5,.cls-6,.cls-7{stroke:#fff;}.cls-2,.cls-3,.cls-4,.cls-5,.cls-6,.cls-7{stroke-miterlimit:10;}.cls-3{fill:#f6df1c;}.cls-4,.cls-9{fill:#fff;}.cls-5{fill:#0077bf;}.cls-6{fill:url(#linear-gradient-2);}.cls-7,.cls-8{fill:#dd0932;}.cls-10{fill:#e44e28;}.cls-11{fill:url(#linear-gradient-3);}.cls-12{fill:url(#linear-gradient-4);}.cls-13{fill:#e22787;}.cls-14{fill:url(#linear-gradient-5);}.cls-15{fill:url(#radial-gradient);}.cls-16{fill:url(#linear-gradient-6);}.cls-17{fill:#1d1d1b;}.cls-18{fill:#ebebeb;}</style><linearGradient id="linear-gradient" x1="37.97" y1="-37.97" x2="563.65" y2="487.7" gradientUnits="userSpaceOnUse"><stop offset="0" stop-color="#f29295"/><stop offset="0.28" stop-color="#ee6f75"/><stop offset="0.89" stop-color="#e51723"/><stop offset="1" stop-color="#e30613"/></linearGradient><linearGradient id="linear-gradient-2" x1="381.89" y1="225.76" x2="507.37" y2="225.76" gradientUnits="userSpaceOnUse"><stop offset="0" stop-color="#5f4796"/><stop offset="1" stop-color="#4d4696"/></linearGradient><linearGradient id="linear-gradient-3" x1="495.9" y1="624.21" x2="589.34" y2="550.03" gradientTransform="matrix(1, 0, 0, -1, -96, 819)" xlink:href="#linear-gradient-2"/><linearGradient id="linear-gradient-4" x1="524.63" y1="609.46" x2="545.52" y2="574.13" gradientTransform="matrix(1, 0, 0, -1, -96, 819)" gradientUnits="userSpaceOnUse"><stop offset="0" stop-color="#fff"/><stop offset="1" stop-color="#f0e5f2"/></linearGradient><linearGradient id="linear-gradient-5" x1="61.16" y1="469.44" x2="65.49" y2="474.04" gradientTransform="matrix(9.04, 0, 0, -9.04, -205.4, 4381.06)" gradientUnits="userSpaceOnUse"><stop offset="0" stop-color="#df2185"/><stop offset="0.4" stop-color="#de2386"/><stop offset="0.77" stop-color="#942e88"/><stop offset="1" stop-color="#5d3088"/></linearGradient><radialGradient id="radial-gradient" cx="65.67" cy="495.57" r="4.23" gradientTransform="matrix(9.04, 0.02, 0.02, -7.56, -212.09, 3829.32)" gradientUnits="userSpaceOnUse"><stop offset="0" stop-color="#df2185"/><stop offset="0.14" stop-color="#dd2486"/><stop offset="0.28" stop-color="#d52586"/><stop offset="0.43" stop-color="#c82987"/><stop offset="0.59" stop-color="#b82a87"/><stop offset="0.74" stop-color="#9d2e88"/><stop offset="0.89" stop-color="#7c3088"/><stop offset="1" stop-color="#5d3088"/></radialGradient><linearGradient id="linear-gradient-6" x1="62.2" y1="475.89" x2="64.08" y2="475.89" gradientTransform="matrix(9.04, 0, 0, -9.04, -205.4, 4381.06)" gradientUnits="userSpaceOnUse"><stop offset="0" stop-color="#df2185"/><stop offset="0.24" stop-color="#d92385"/><stop offset="0.66" stop-color="#c62686"/><stop offset="1" stop-color="#b62385"/></linearGradient></defs><rect class="cls-1" width="601.62" height="449.73"/><polygon class="cls-2" points="293.26 137.54 230.52 173.76 167.77 137.54 167.77 65.09 230.52 28.87 293.26 65.09 293.26 137.54"/><polygon class="cls-3" points="220.97 192.03 158.23 155.8 95.49 192.03 95.49 264.47 158.23 300.7 220.97 264.47 220.97 192.03"/><polygon class="cls-4" points="293.95 312.41 231.21 276.19 168.46 312.41 168.46 384.86 231.21 421.08 293.95 384.86 293.95 312.41"/><polygon class="cls-5" points="441.78 314.13 379.04 277.91 316.3 314.13 316.3 386.58 379.04 422.8 441.78 386.58 441.78 314.13"/><polygon class="cls-6" points="507.38 189.53 444.63 153.31 381.89 189.53 381.89 261.98 444.63 298.21 507.38 261.98 507.38 189.53"/><polygon class="cls-4" points="440.13 65.01 377.39 28.79 314.65 65.01 314.65 137.46 377.39 173.68 440.13 137.46 440.13 65.01"/><polygon class="cls-7" points="364.47 188.29 301.73 152.07 238.99 188.29 238.99 260.74 301.73 296.96 364.47 260.74 364.47 188.29"/><polygon class="cls-8" points="301.35 188.93 301.35 188.93 301.35 188.93 266.6 201.32 271.9 247.27 301.35 263.58 301.35 263.58 301.35 263.58 330.8 247.27 336.1 201.32 301.35 188.93"/><path class="cls-9" d="M299.91,197.69,278.19,246.4h8.1l4.37-10.9H309.1l4.36,10.9h8.1l-21.65-48.71Zm6.35,31.09H293.57l6.34-15.26Z" transform="translate(1.43 -0.51)"/><path class="cls-9" d="M197.18,392.44l-7.39-82.94H271l-7.4,82.93-33.28,9.22Z" transform="translate(1.43 -0.51)"/><path class="cls-10" d="M230.38,326.45H204.91l2.74,30.76h22.77V347H217L216,336.63h14.39V326.45Zm0,47h0L219,370.38l-.72-8.11H208.11l1.42,16L230.37,384l0,0Z" transform="translate(1.43 -0.51)"/><path class="cls-10" d="M230.38,357.21h12.53l-1.15,13.19-11.35,3.06v10.59l20.85-5.78,2.8-31.23H230.42Zm25.24-28,.24-2.73H230.38v10.17H255l.2-2.28Z" transform="translate(1.43 -0.51)"/><path class="cls-11" d="M400.93,197.22a10.65,10.65,0,0,1,10.41-11.13h62.52a10.65,10.65,0,0,1,10.42,11.13c-.19,5.57.06,12.78,1.87,18.66s4.89,9.62,9.92,10.1v5.43c-5,.48-8.1,4.21-9.92,10.1s-2.06,13.09-1.87,18.66a10.65,10.65,0,0,1-10.42,11.13H411.34a10.65,10.65,0,0,1-10.41-11.13c.19-5.57-.06-12.78-1.88-18.66s-4.89-9.62-9.92-10.1V226c5-.48,8.1-4.21,9.92-10.1S401.12,202.79,400.93,197.22Z" transform="translate(1.43 -0.51)"/><path class="cls-12" d="M444.92,251.35c9.88,0,15.83-4.84,15.83-12.82,0-6-4.25-10.39-10.56-11.09v-.25a10.11,10.11,0,0,0,8.27-9.86c0-6.85-5.4-11.31-13.64-11.31H426.29v45.33Zm-11.43-39.58h9.59c5.22,0,8.18,2.33,8.18,6.53,0,4.5-3.45,7-9.69,7h-8.08Zm0,33.83V230.68H443c6.82,0,10.36,2.51,10.36,7.41s-3.44,7.51-9.94,7.51Z" transform="translate(1.43 -0.51)"/><path class="cls-13" d="M340.05,114a33.54,33.54,0,0,1-1.16-16,55.82,55.82,0,0,1,1.73-6.73s4.34-14.25,19-20.76a31.13,31.13,0,0,1,12.67-2.86,16.57,16.57,0,0,0-1.7-1.45c-3.58-2.39-8.93-3.17-12.17.19-1,1-1.79,2.11-2.7,3.12A9.82,9.82,0,0,1,352,72.15a19.52,19.52,0,0,1-3.8.59,8.19,8.19,0,0,0-3.74,1.55,4.9,4.9,0,0,0-1.76,3.64c-.13,1.14-.1,2.3-.16,3.43-.16,3.33-1.23,4.28-3.62,6.13a9.87,9.87,0,0,0-2.48,2.83c-1.89,3.34,1.13,6.8,1.29,10.16a4.91,4.91,0,0,1-.29,2,7.5,7.5,0,0,1-1.16,1.8,3.68,3.68,0,0,0-.79,2.7,8.56,8.56,0,0,0,1.14,2.74,25.46,25.46,0,0,0,3.24,4.15c.06,0,.12.06.18.12" transform="translate(1.43 -0.51)"/><path class="cls-14" d="M400.06,126.11a22.86,22.86,0,0,0,10.31-8.58,24.79,24.79,0,0,0,4.47-18.94c-4.31,9.38-8.24,12-8.24,12,10.59-16.13.06-25.88.06-25.88C411,93.85,405.24,105,405.24,105c-4.81,10.13-11.63,13.74-11.63,13.74,7.61,1.42,13.21-3.71,13.21-3.71-10.92,11.8-22.74,11.23-22.74,11.23,5,5.57,12.42,5.09,12.42,5.09-9.75,2.3-18.9-.94-26.41-7.2a41,41,0,0,1-4-3.77s-1.13-1.2-1.35-1.51l0,0c-.16,5.82,5.91,11.22,5.91,11.22a23.59,23.59,0,0,1-11.1-10s-5.13-8.75-1.42-18.72S373,89.32,373,89.32a74.05,74.05,0,0,0,17.14,5.91c16.57,2.77,15.63-5.35,15.63-5.35.16-7-10.38-14.4-10.38-14.4-18.77-13.93-35.75-4.94-35.75-4.94-14.69,6.51-19,20.76-19,20.76A55.82,55.82,0,0,0,338.89,98c-1.6,9.34.82,18.17,6.07,26,8.18,12.2,21.45,16.41,21.45,16.41,19.65,6.67,33.08-3.14,33.08-3.14,12.36-8.49,14.84-18.31,14.84-18.31-10,7.8-14.27,7.08-14.27,7.08ZM384.71,80.23a1.7,1.7,0,1,1-1.7,1.7A1.69,1.69,0,0,1,384.71,80.23Z" transform="translate(1.43 -0.51)"/><path class="cls-15" d="M405.75,89.85c.15-7-10.38-14.4-10.38-14.4-18.77-13.9-35.76-4.91-35.76-4.91-14.68,6.51-19,20.76-19,20.76A58.71,58.71,0,0,0,339,97.43a35.14,35.14,0,0,0-.5,9,34.41,34.41,0,0,0,1.29,6.89,35.16,35.16,0,0,0,1.38,3.87c0-.1-.18-.79-.18-.79a35.55,35.55,0,0,1-.1-12.45,25.4,25.4,0,0,1,5.41-11.26,18.25,18.25,0,0,1,20.16-6.1s2.83,1,3.8,1.51,2.68,1.19,2.68,1.19a73.66,73.66,0,0,0,17.14,5.92C406.69,98,405.75,89.85,405.75,89.85Zm-21-6.19a1.7,1.7,0,1,1,1.7-1.7A1.7,1.7,0,0,1,384.71,83.66Z" transform="translate(1.43 -0.51)"/><path class="cls-16" d="M374,77.21l-10.72-3.33a1.59,1.59,0,0,0-.94,0s-6.32,1.6-5.22,5.06a13.43,13.43,0,0,0,2.45,4.28l11.79-.57Z" transform="translate(1.43 -0.51)"/><path class="cls-17" d="M123.49,243.59l6.16-6.22c1.22,1.59,3.3,3.78,6.59,3.78,1.4,0,6.16-.24,6.16-7.5V206.5H152V235c0,11.65-8.11,15.43-15.31,15.43C130.51,250.42,126.05,247.62,123.49,243.59Z" transform="translate(1.43 -0.51)"/><path class="cls-17" d="M156.25,239.56l7.81-3.59c1.21,2.92,3.53,5.73,7.62,5.73,2.87,0,5.49-1.4,5.49-4.76,0-2.56-1.4-3.78-5.55-5.43l-2.68-1c-5.8-2.32-11.11-5.5-11.11-12.51,0-7.5,6.29-12.08,13.79-12.08a15.2,15.2,0,0,1,14.27,9.21l-7.13,4c-1.89-3.3-4.09-4.7-6.77-4.7s-4.64,1.22-4.64,3.66c0,1.89,1.1,3.36,5.61,5.19l2.93,1.16c7.81,3.11,11.29,6.64,11.29,12.62,0,9-8.06,13.36-15.38,13.36C164.18,250.42,157.89,245.91,156.25,239.56Z" transform="translate(1.43 -0.51)"/><path class="cls-9" d="M207.33,89h-10V80.14H227V89H217v34.47h-9.63Z" transform="translate(1.43 -0.51)"/><path class="cls-9" d="M227.82,113.21l7.81-3.6c1.22,2.93,3.54,5.73,7.62,5.73,2.87,0,5.5-1.4,5.5-4.76,0-2.56-1.41-3.78-5.56-5.42l-2.68-1c-5.8-2.32-11.1-5.49-11.1-12.51,0-7.5,6.28-12.08,13.78-12.08a15.22,15.22,0,0,1,14.28,9.22l-7.14,4c-1.89-3.29-4.09-4.7-6.77-4.7s-4.64,1.22-4.64,3.66c0,1.9,1.1,3.36,5.62,5.19l2.92,1.16c7.81,3.11,11.29,6.65,11.29,12.63,0,9-8.05,13.36-15.37,13.36C235.75,124.07,229.47,119.55,227.82,113.21Z" transform="translate(1.43 -0.51)"/><g id="layer1"><polygon id="polygon2993" class="cls-18" points="378.24 342.25 350.92 342.25 351.92 353.91 378.24 353.91 378.24 342.25"/><polygon id="polygon2995" class="cls-18" points="378.24 318.43 378.24 318.43 348.76 318.43 349.92 330.09 378.24 330.09 378.24 318.43"/><polygon id="polygon2997" class="cls-18" points="352.59 359.91 354.09 378.23 378.24 385.06 378.24 385.06 378.24 372.73 378.24 372.73 365.25 369.23 364.25 359.91 357.92 359.91 352.59 359.91"/><polygon id="polygon3005" class="cls-9" points="392.73 353.91 391.4 369.23 378.24 372.73 378.24 385.06 402.39 378.23 402.56 376.4 405.39 345.42 405.56 342.25 407.72 318.43 378.24 318.43 378.24 330.09 394.9 330.09 393.73 342.25 378.24 342.25 378.24 353.91 392.73 353.91"/></g></svg>