<svg id="Layer_1" data-name="Layer 1" xmlns="http://www.w3.org/2000/svg" xmlns:xlink="http://www.w3.org/1999/xlink" viewBox="0 0 500 833"><defs><style>.cls-1{fill:url(#linear-gradient);}.cls-2{fill:#488bca;}.cls-2,.cls-3,.cls-4{stroke:#fff;stroke-miterlimit:10;stroke-width:0.25px;}.cls-3{fill:#86c2eb;}.cls-4{fill:#fff;}</style><linearGradient id="linear-gradient" x1="436.71" y1="784.22" x2="210.34" y2="338.4" gradientUnits="userSpaceOnUse"><stop offset="0" stop-color="#9ed7f7"/><stop offset="0.1" stop-color="#90caec"/><stop offset="0.51" stop-color="#5e9cc6"/><stop offset="0.82" stop-color="#3f80ae"/><stop offset="0.99" stop-color="#3375a5"/></linearGradient></defs><rect class="cls-1" width="500" height="833"/><path class="cls-2" d="M404,479.79c.92-8.58,1.72-17.16,2.58-25.74-.56-.13-.68-.25-.74-.19a15.07,15.07,0,0,0-1.29.8,63.92,63.92,0,0,1-25.5,10.91c-13.79,2.82-26.17-.18-38-7.11-8.65-5-16.19-11.52-23.72-18.08-.86-.74-1.6-1.53-2.89-1.41-9.68,1-19.37,2.15-29,3.06-1.6.13-1.72.74-1.78,2-.18,8.76-.37,17.46-.61,26.23a6.21,6.21,0,0,0,2.14,5.09c13.31,12.25,27.59,23.1,44.2,30.52a94.48,94.48,0,0,0,37.15,8.51,116.26,116.26,0,0,0,24.76-2.63,109.38,109.38,0,0,0,34.27-13.73c2.94-1.78,6.13-3.43,8.7-6.62l-26.36-6.25C403.47,484.14,403.53,484.14,404,479.79Z" transform="translate(0 0)"/><path class="cls-2" d="M450.36,339.87a51.54,51.54,0,0,0-7.78-7.78c-.31,3.06-.61,5.57-.86,8.09-.61,7.35-1.23,14.77-1.84,22.12-.12,1.23-.55,1.78-2,2.08-4.41,1-8.89.37-13.3.92-4.6.62-9.32.62-14.59.92,1.29,1.47,2.08,2.45,2.94,3.37,11.16,12.2,16.61,26.36,15.33,43a56,56,0,0,1-15.57,34.81,4,4,0,0,0-1.54,2.51c-.86,9.62-1.71,19.18-2.57,28.81-.12,1.65.49,2.14,2.14,2.57,8.16,1.9,16.25,4.11,24.46,5.88,1.53.37,3.31,1.47,5.09-.18a110.59,110.59,0,0,0,22.44-27.58A103.29,103.29,0,0,0,450.36,339.87Z" transform="translate(0 0)"/><path class="cls-2" d="M288.6,339.68c8.39,1.17,16.85,2.4,25.25,3.38,1.9.24,2.39.73,2.33,2.57-.12,4.47-.06,8.95-.06,13.48V372.6c0,.73-.49,1.77.49,2.2s1.47-.61,2-1.1a138.78,138.78,0,0,1,15.2-12.2c8.46-5.7,17.47-10.05,27.71-11,12.2-1.16,24,.68,34.76,6.8,5.82,3.31,11.52,5.83,18.32,4.6,3.44-.61,6.93-.12,10.3-.73,3.07-.56,6.13.18,9.08-.74.85-.25,1.9-.12,1.83-1.53-.12-2.45.62-4.78.74-7.23a111.09,111.09,0,0,1,1.72-17.53c.85-4.66-1.05-7.6-4.79-10.05a155.78,155.78,0,0,0-21.08-12.2,115.06,115.06,0,0,0-36.9-9.31,84.63,84.63,0,0,0-20.11.55,110.73,110.73,0,0,0-30.22,8.64c-13.91,6.37-26,15.38-37.39,25.49-.49.49-1.35.92-1,1.72S287.92,339.56,288.6,339.68Z" transform="translate(0 0)"/><path class="cls-2" d="M310.72,381.36A3.23,3.23,0,0,0,312,379c-.06-10.11,0-20.22,0-30.34,0-.85.06-1.47-1.16-1.65-9-1.17-17.84-2.39-26.79-3.68a4.65,4.65,0,0,0-4.54,1.78c-2.14,2.45-4.41,4.78-6.62,7.17l-32.55,35.12c-14,15-27.15,30.82-41.86,45.17-2.21,2.2-4.66,4.23-7.3,6.62a17.62,17.62,0,0,0,5,1.1c7.84.73,15.75,1.53,23.6,2.33,1,.12,1.41.49,1.47,1.47.12,3.12.61,6.25.55,9.38-.12,7.1.92,14.21.49,22.06,4-2.7,6.68-5.76,9.56-8.64,11-11,21.34-22.68,31.82-34.2Q287.09,407.16,310.72,381.36Z" transform="translate(0 0)"/><path class="cls-3" d="M99.92,474.88a122.79,122.79,0,0,1-1.17-13.3c-.06-3.79-1.34-7.35-1.28-11.15,0-1-.68-1.41-1.29-2a56.07,56.07,0,0,1-15-26.54c-3.55-14.22-1.59-27.7,5.21-40.51a52.94,52.94,0,0,1,8.77-12.07,188.27,188.27,0,0,0-19.49-1.53c-3.5-.07-7-.8-10.55-1.05-1.28-.06-1.41-.67-1.47-1.71-.67-8-1.9-15.88-1.84-23.9a6.44,6.44,0,0,0-1.28-4.05c-.49.61-.8,1.1-1.17,1.53a101.75,101.75,0,0,0-27.09,75.51,111.21,111.21,0,0,0,4.78,25.74c5.39,16.73,14.77,31.07,27,43.64,2.7,2.75,5.4,3.18,8.95,2.2,7.54-2,15.2-3.86,22.87-5.51C99.74,479.42,100.35,478.75,99.92,474.88Z" transform="translate(0 0)"/><path class="cls-3" d="M217.49,466.73c.55-5.21-.55-11.15-.49-17.16,0-2-.74-2.63-2.64-2.76-4.35-.24-8.64-.85-13-1.34-3.68-.37-7.48.12-11-1.47a4.49,4.49,0,0,0-4.79,1.1,114.06,114.06,0,0,1-20.65,14.71c-5.58,3.06-11.47,5.82-17.78,6.49a60.66,60.66,0,0,1-42.6-10.84c-.37-.31-.68-.86-1.29-.55s-.37,1-.43,1.59c-.24,2.94.43,5.82.67,8.76.43,5.15.8,10.3,1.48,15.39.24,1.59,0,2.14-1.6,2.51-2.14.43-4.29.92-6.5,1.41-6.92,1.53-13.79,3.43-20.71,5.15-1,.24-2.46-.13-2.7.92s1.22,1.77,2,2.32c6.93,4.72,13.92,9.26,21.76,12.32,9.87,3.86,19.86,7.05,30.59,8.09,9.38.92,18.76,1.23,27.95-.43a105.84,105.84,0,0,0,33.41-12.56,187.76,187.76,0,0,0,19.43-13c9.44-7,9.38-7.05,9-18.94A5.69,5.69,0,0,0,217.49,466.73Z" transform="translate(0 0)"/><path class="cls-3" d="M67.8,360.58c.12,1.66.61,2,2.14,2,6.2.07,12.33,1.11,18.46,1.41,6.31.31,12.5,1.78,17.47-3.73.12-.13.36-.13.55-.25a57.92,57.92,0,0,1,26.85-9.56c7-.61,14.16-.74,21.14,1.35a69.81,69.81,0,0,1,24.22,12.62c.73.62,1.59,1.54,2.69,1.05s.56-1.78.56-2.7c.06-8.46.06-16.92.06-25.44,0-1.22-.25-2.26,1.71-2.51,9.57-1.22,19.13-2.57,29.18-4C202.66,323,192.54,316,181,311.06a109.93,109.93,0,0,0-22.74-6.92A97,97,0,0,0,132,302.91a106.57,106.57,0,0,0-13.18,1.72,109.67,109.67,0,0,0-23.54,7.54c-10.6,4.9-20.41,10.91-28.81,19.18a3.69,3.69,0,0,0-1.1,3.31C66.27,343.3,67.13,351.94,67.8,360.58Z" transform="translate(0 0)"/><path class="cls-3" d="M186.17,342.32c.3,4.29.06,8.58.06,12.87,0,4,.18,8-.06,11.95-.19,2.7,1,4.29,2.88,5.89a195.53,195.53,0,0,1,16,15.93c4.29,4.72,8.46,9.5,12.75,14.16.49.55.73,1.53,2,.18,9.74-10.85,19.61-21.51,29.48-32.17,1.35-1.48,1.23-2.52,0-3.93-9.31-10.72-19.37-20.65-29.54-30.52-1-1-2.15-2-3.68-1.71-8.71,1.77-17.53,2.69-26.3,3.61C187.39,338.77,186,339.56,186.17,342.32Z" transform="translate(0 0)"/><path class="cls-3" d="M291.42,413.6c-1.66-1.9-2.7-1.66-4.17.06Q273.09,429.38,258.74,445c-1.1,1.22-1.28,2,.19,3.18s2.45,3,3.8,4.36c5.15,5,10.36,10.05,15.45,14.95a10.88,10.88,0,0,0,.67-5c-.43-7.53.67-15,.61-22.55,0-1-.06-1.9,1.47-2,9.81-1,19.68-2.09,30.22-3.19C304,427.63,297.67,420.71,291.42,413.6Z" transform="translate(0 0)"/><path class="cls-3" d="M117.14,389.27c2.76,0,6.93,0,10.49,2.14,3.37,2.08,5.94,6,5.94,13.91,0,7.54-2.33,11.83-5.94,14.1s-7.79,2.14-10.49,2.14H107.7V389.27Zm-1.34,26h1.9a8,8,0,0,0,4.23-.86c2.2-1.34,3-4.41,3-9.07s-.8-7.66-3.13-8.94a8.35,8.35,0,0,0-4-.86h-1.9v19.73Z" transform="translate(0 0)"/><path class="cls-3" d="M157.05,420.89a32.49,32.49,0,0,1-7.66.92c-4.54,0-7.36-1.1-9.26-2.94-2.21-2.21-3.06-5.39-3.06-9.38,0-7.54,3.25-12.81,11-12.81,4.11,0,7.05,1.53,8.64,3.92,1.84,2.76,1.84,6.26,1.84,11H145.1c0,2.88,1.65,4.53,5.15,4.53a29.91,29.91,0,0,0,6.55-1.1h.31v5.82ZM150.61,407c0-3.06-.49-4.9-2.63-4.9s-3,2-3,4.9Z" transform="translate(0 0)"/><path class="cls-3" d="M169,397.42l3.93,15.69,4.1-15.69h7.3l-7.79,24.14H168l-7.72-24.14Z" transform="translate(0 0)"/><path class="cls-2" d="M348.91,417.83c-2.33,2.75-6.06,4.35-10.72,4.35-4.42,0-8.22-1.41-10.67-4.35s-3.37-7.48-3.37-12.38c0-5.4,1.1-9.56,3.56-12.38s6.06-4.35,10.78-4.35c4.42,0,8.22,1.4,10.67,4.35,2.63,3.18,3.37,7.78,3.37,12.19C352.53,410.66,351.37,415,348.91,417.83Zm-6.43-4.29c.92-1.66,1.28-4.17,1.28-8.15s-.36-6.5-1.28-8.16a4.9,4.9,0,0,0-6.74-1.65,5.34,5.34,0,0,0-1.66,1.65c-.92,1.66-1.29,4.11-1.29,8.16s.37,6.49,1.29,8.15a4.89,4.89,0,0,0,6.74,1.65A4.31,4.31,0,0,0,342.48,413.54Z" transform="translate(0 0)"/><path class="cls-2" d="M356.94,429.47V397.42h6.38l1.29,3.43c.92-2.76,3.49-3.92,6.37-3.92a8.16,8.16,0,0,1,6.81,3.12c1.59,2.09,2.26,5.15,2.26,9.13,0,3.8-.61,7.3-2.63,9.75a8.5,8.5,0,0,1-6.87,3.06c-2.76,0-4.78-1-5.64-3.18v10.66ZM370.8,414.7c.67-1.1.92-2.57.92-5.21s-.19-4.17-.92-5.27a2.81,2.81,0,0,0-2.52-1.29,2.68,2.68,0,0,0-2.51,1.29c-.67,1.1-.86,2.57-.86,5.21s.19,4.17.86,5.27a2.81,2.81,0,0,0,2.51,1.29A2.48,2.48,0,0,0,370.8,414.7Z" transform="translate(0 0)"/><path class="cls-2" d="M399.49,403.55h-.37a23.85,23.85,0,0,0-5.46-1.05c-1.65,0-2.33.62-2.33,1.35,0,1.6,2.88,2.21,5.09,3.5s4.11,3.06,4.11,6.68c0,4.59-3.13,7.78-10.36,7.78a20.64,20.64,0,0,1-6.68-1v-5.64h.36a25,25,0,0,0,6.26,1.23c1.77,0,2.57-.62,2.57-1.6,0-1.9-3.06-2.33-5.7-4a6.81,6.81,0,0,1-3.49-6.19c0-4.84,3.67-7.54,10.05-7.54a22.38,22.38,0,0,1,6.07.8Z" transform="translate(0 0)"/><path class="cls-4" d="M209.83,352.62a5.18,5.18,0,0,1,1.59,2.33,3.21,3.21,0,0,1-1.1,3.18A3.65,3.65,0,0,1,207,359.3a5,5,0,0,1-2.33-1.54l-.49-.49-2.33,2.33-1.53-1.53,7.41-7.54Zm-4.35,3.49.55.55a1.92,1.92,0,0,0,1.16.68,2.61,2.61,0,0,0,2.21-2.27,2,2,0,0,0-.74-1.11l-.55-.55Z" transform="translate(0 0)"/><path class="cls-4" d="M215.59,358.32l-6.13,6.25,2.45,2.39-1.29,1.35-4-4,7.42-7.54Z" transform="translate(0 0)"/><path class="cls-4" d="M215.71,373.27l1.17-2.08-2.39-2.39L212.4,370,211,368.61l9.75-5.33,1.84,1.78-5.15,9.8Zm.31-5.33,1.72,1.65,2.14-3.86Z" transform="translate(0 0)"/><path class="cls-4" d="M227.18,369.65l-1.72,7.48,4.6-4.66,1.35,1.35L224,381.36,222.58,380l1.59-7.66-4.6,4.72-1.34-1.35,7.41-7.54Z" transform="translate(0 0)"/><path class="cls-4" d="M241,421.93l2.94,2.64-1.41,1.59-7.91-7.11,2.27-2.51a4.69,4.69,0,0,1,2.21-1.59A3.44,3.44,0,0,1,243,418a3.38,3.38,0,0,1-.06,1.1l4.72,1.29-1.59,1.78-4.17-1.29Zm-1.35-1.22.8-.92a2.05,2.05,0,0,0,.61-1,1.51,1.51,0,0,0-.67-1.23,1.31,1.31,0,0,0-2.15.12l-.86,1Z" transform="translate(0 0)"/><path class="cls-4" d="M244.77,407.9l1.35,1.22-2.52,2.76,1.78,1.59,2.15-2.32,1.34,1.22-2.08,2.33,2.08,1.84,2.64-2.94,1.35,1.22-4.11,4.54-7.91-7.11Z" transform="translate(0 0)"/><path class="cls-4" d="M247.53,404.77l6.49,5.82,2.33-2.57,1.35,1.23-3.8,4.23L246,406.37Z" transform="translate(0 0)"/><path class="cls-4" d="M254.64,396.87l1.35,1.22-2.52,2.76,1.78,1.59,2.15-2.33,1.34,1.23-2.14,2.33,2.08,1.84,2.64-2.94,1.35,1.22-4.11,4.54-7.91-7.11Z" transform="translate(0 0)"/><path class="cls-4" d="M267.57,398.4l-2.14-1-2.27,2.51,1.28,2-1.28,1.47-5.76-9.5,1.71-1.9,10,4.72Zm-5.33-.06,1.59-1.78-4-2Z" transform="translate(0 0)"/><path class="cls-4" d="M267.14,386l-.06.06a5.35,5.35,0,0,0-1.59,1.22c-.68.74-.62,1.35-.25,1.72.68.61,1.78,0,3-.31a3.12,3.12,0,0,1,3.31.62c1.53,1.41,1.28,3.25-.25,5a7.7,7.7,0,0,1-1.9,1.53l-1.35-1.22.06-.06a7.62,7.62,0,0,0,1.84-1.29c.68-.74.74-1.53.19-2-.8-.68-2,0-3.31.3a3,3,0,0,1-3-.61c-1.35-1.22-1.41-2.94.12-4.66a8.54,8.54,0,0,1,1.78-1.47Z" transform="translate(0 0)"/><path class="cls-4" d="M271.07,378.66l1.34,1.23-2.51,2.76,1.78,1.59,2.08-2.33,1.35,1.23L273,385.47l2.08,1.83,2.64-2.94,1.34,1.23-4.1,4.53-7.85-7Z" transform="translate(0 0)"/><path class="cls-4" d="M113.9,336.31a8.55,8.55,0,0,1-1.84.92c-3.37,1.17-5.34-.92-6.26-3.61s-.61-5.52,2.82-6.62a5.82,5.82,0,0,1,2-.37l.55,1.72h-.12a5.26,5.26,0,0,0-1.66.24c-1.84.61-2.14,2.21-1.47,4.23s1.9,3.25,3.8,2.64a4.1,4.1,0,0,0,1.41-.8h.12Z" transform="translate(0 0)"/><path class="cls-4" d="M122.42,332.94A4.79,4.79,0,0,1,116,335c-.24-.13-.49-.31-.73-.43a6.69,6.69,0,0,1-1.72-3.5,6.35,6.35,0,0,1,.06-3.86,4.38,4.38,0,0,1,3.19-2.45,4.33,4.33,0,0,1,3.92.86,6.94,6.94,0,0,1,1.72,3.49A6.61,6.61,0,0,1,122.42,332.94Zm-2.09-.49a5.77,5.77,0,0,0-.12-2.88,5.36,5.36,0,0,0-1.1-2.63,2.14,2.14,0,0,0-3,.18c-.12.18-.24.37-.37.55a8.52,8.52,0,0,0,1.23,5.58,2.06,2.06,0,0,0,2.94-.18C120.09,332.82,120.21,332.64,120.33,332.45Z" transform="translate(0 0)"/><path class="cls-4" d="M126.83,323.2a6.46,6.46,0,0,1,3.43.31c1.17.55,2.15,1.65,2.45,4.35s-.36,4-1.53,4.84a6.13,6.13,0,0,1-3.25,1l-2.88.31L124,323.44Zm.24,8.82.92-.12a2.85,2.85,0,0,0,1.6-.49c.79-.61,1-1.59.79-3.25s-.55-2.63-1.47-3.06a3.75,3.75,0,0,0-1.65-.19l-.92.07Z" transform="translate(0 0)"/><path class="cls-4" d="M140.62,322.52v1.78h-3.74v2.39h3.19v1.84h-3.13v2.82h3.93v1.78l-6.13.06-.06-10.6Z" transform="translate(0 0)"/><path class="cls-4" d="M60,403.67a4.63,4.63,0,0,1-.61,2.39,2.42,2.42,0,0,1-2.27,1,2.1,2.1,0,0,1-2.14-1.9,2.43,2.43,0,0,1-2.82,2,2.63,2.63,0,0,1-2.39-1.53,5.3,5.3,0,0,1-.31-2.76l.24-3.25,10.55.8ZM51.19,402l-.06,1.23a2.42,2.42,0,0,0,.12,1.16,1.3,1.3,0,0,0,1.16.68,1.12,1.12,0,0,0,1.23-.49,2.58,2.58,0,0,0,.31-1.11l.06-1.16Zm4.66.37-.07,1a1.75,1.75,0,0,0,.13,1,1,1,0,0,0,1,.55,1.22,1.22,0,0,0,1.16-.43,2.39,2.39,0,0,0,.25-.92l.06-1Z" transform="translate(0 0)"/><path class="cls-4" d="M59.71,411.15l-7,.18c-1.16.06-2,.43-2,1.84s.92,1.71,2.08,1.71l7-.18.06,2-6.62.19a4.77,4.77,0,0,1-3-.68,4.61,4.61,0,0,1-.19-6.19,4.94,4.94,0,0,1,3-.86l6.62-.18Z" transform="translate(0 0)"/><path class="cls-4" d="M60.38,420.65l-10.54,1.16-.25-2.21,10.55-1.16Z" transform="translate(0 0)"/><path class="cls-4" d="M61,424.69l-8.59,1.53.62,3.37-1.84.31-1-5.58,10.42-1.9Z" transform="translate(0 0)"/><path class="cls-4" d="M62.59,431.68a6.56,6.56,0,0,1,.31,3.43c-.31,1.23-1.29,2.45-3.93,3.19s-4,.3-5-.68a6.44,6.44,0,0,1-1.54-3l-.79-2.76L61.85,429Zm-8.71,1.77.25.86a3,3,0,0,0,.8,1.53c.73.68,1.77.68,3.37.19s2.51-1,2.76-2a3,3,0,0,0-.13-1.66l-.24-.86Z" transform="translate(0 0)"/><path class="cls-4" d="M321.15,466.92l-2.58,7.35,6.62-4.1,2.21,1.77-6.68,8.21-1.66-1.34,5-6.13L317.47,477,316,475.74l2.76-7.35-5,6.13-1.47-1.23,6.68-8.21Z" transform="translate(0 0)"/><path class="cls-4" d="M330.65,484.63a4.79,4.79,0,0,1-6.07-2.94,3.87,3.87,0,0,1-.19-.8,7.19,7.19,0,0,1,1.23-3.68,6.45,6.45,0,0,1,2.7-2.75,4.17,4.17,0,0,1,4,.42,4.29,4.29,0,0,1,2.27,3.31,6.39,6.39,0,0,1-1.23,3.68A6.79,6.79,0,0,1,330.65,484.63Zm-1.17-1.84a6.2,6.2,0,0,0,1.9-2.14,5,5,0,0,0,1-2.64,2.12,2.12,0,0,0-2.26-2,1.44,1.44,0,0,0-.68.18,6.27,6.27,0,0,0-1.9,2.15,5.06,5.06,0,0,0-1,2.63,2.11,2.11,0,0,0,2.27,2C329,482.91,329.24,482.85,329.48,482.79Z" transform="translate(0 0)"/><path class="cls-4" d="M339.17,478.81l1,7.6,2.7-6,1.77.8-4.41,9.62-1.78-.8-1.1-7.78-2.76,6-1.72-.8,4.42-9.62Z" transform="translate(0 0)"/><path class="cls-4" d="M348.42,482.61l-3.55,10-2.09-.74,3.56-10Z" transform="translate(0 0)"/><path class="cls-4" d="M356.33,484.87l-.49,1.78-2.39-.67-2.33,8.46-2.14-.62,2.32-8.46-2.39-.67.49-1.78Z" transform="translate(0 0)"/><path class="cls-4" d="M363,495.23a4.24,4.24,0,0,1-3.92,1.11,4.1,4.1,0,0,1-3.31-2.27,6.26,6.26,0,0,1-.25-3.92,6.4,6.4,0,0,1,1.48-3.56,4.82,4.82,0,0,1,6.74.49,2.63,2.63,0,0,1,.49.68,6.36,6.36,0,0,1,.24,3.86A5.77,5.77,0,0,1,363,495.23ZM361.24,494a5.65,5.65,0,0,0,.91-2.7,6.1,6.1,0,0,0,0-2.88,2.06,2.06,0,0,0-2.82-.92l-.55.37a8.72,8.72,0,0,0-.92,5.57,2,2,0,0,0,2.82.92A.92.92,0,0,0,361.24,494Z" transform="translate(0 0)"/><path class="cls-4" d="M368.47,493.21l-.19,4-2.14-.06.43-10.6,3.43.12a4.16,4.16,0,0,1,2.64.74,3.42,3.42,0,0,1-.8,5.57l2,4.48-2.45-.12-1.65-4.05Zm.06-1.78,1.23.06a1.92,1.92,0,0,0,1.16-.18,1.67,1.67,0,0,0,.55-1.29,1.5,1.5,0,0,0-.43-1.22,1.37,1.37,0,0,0-1.1-.31l-1.29-.06Z" transform="translate(0 0)"/><path class="cls-4" d="M136.33,482.48l-.12,1.84-2.52-.18-.73,8.7-2.21-.18.74-8.7-2.51-.19.12-1.84Z" transform="translate(0 0)"/><path class="cls-4" d="M143.26,482.48v1.84h-3.74v2.39h3.19v1.84h-3.13v2.76h3.92v1.84h-6.13l-.06-10.6Z" transform="translate(0 0)"/><path class="cls-4" d="M150.37,483.83h-.12a5.84,5.84,0,0,0-2-.18c-1,.12-1.41.55-1.35,1.1.07.92,1.29,1.23,2.46,1.78a3.12,3.12,0,0,1,2,2.76c.18,2.08-1.23,3.31-3.49,3.49a6.83,6.83,0,0,1-2.46-.18l-.18-1.84h.12a7.16,7.16,0,0,0,2.27.3c1-.12,1.59-.61,1.53-1.34-.12-1.05-1.47-1.35-2.63-2a2.94,2.94,0,0,1-1.84-2.51c-.19-1.84,1-3.06,3.25-3.31a7.63,7.63,0,0,1,2.33.12Z" transform="translate(0 0)"/><path class="cls-4" d="M158.21,480.46l.31,1.84-2.45.43,1.59,8.58-2.14.43-1.6-8.58-2.45.43-.3-1.84Z" transform="translate(0 0)"/><path class="cls-4" d="M352.9,320.87a7.25,7.25,0,0,1,3.43.31c1.17.55,2.15,1.65,2.45,4.41s-.43,4-1.53,4.84a6.71,6.71,0,0,1-3.25,1l-2.88.31-1-10.54Zm.18,8.89.92-.06a3.25,3.25,0,0,0,1.66-.5c.79-.61,1-1.59.79-3.24s-.55-2.64-1.47-3.07a3.89,3.89,0,0,0-1.65-.18l-.92.06Z" transform="translate(0 0)"/><path class="cls-4" d="M366.69,320.32v1.84H363v2.39h3.19v1.77H363v2.76h3.92v1.78h-6.13V320.32Z" transform="translate(0 0)"/><path class="cls-4" d="M372.33,320.75a5.54,5.54,0,0,1,2.76.79,3.17,3.17,0,0,1,1.16,3.19,3.49,3.49,0,0,1-1.84,3,4.71,4.71,0,0,1-2.75.31L371,328l-.31,3.25-2.2-.25,1-10.54Zm-1.23,5.39.8.06a2.64,2.64,0,0,0,1.35-.18,2,2,0,0,0,.67-1.47,1.86,1.86,0,0,0-.43-1.66,1.93,1.93,0,0,0-1.28-.43l-.8-.06Z" transform="translate(0 0)"/><path class="cls-4" d="M381,321.91l-1.59,8.58,3.37.61-.3,1.84-5.58-1,1.9-10.42Z" transform="translate(0 0)"/><path class="cls-4" d="M391.09,333.68a4.74,4.74,0,0,1-6.62-1.23,4,4,0,0,1-.43-.73,8.66,8.66,0,0,1,2-7.3,4.43,4.43,0,0,1,4-.67,4.24,4.24,0,0,1,3.06,2.57,6.38,6.38,0,0,1-.12,3.87A6.48,6.48,0,0,1,391.09,333.68Zm-1.6-1.41a5.53,5.53,0,0,0,1.23-2.57,5.21,5.21,0,0,0,.31-2.89,2.07,2.07,0,0,0-2.7-1.22,2.51,2.51,0,0,0-.61.31,4.91,4.91,0,0,0-1.23,2.57,5.86,5.86,0,0,0-.31,2.88,2.08,2.08,0,0,0,2.7,1.23A2.06,2.06,0,0,0,389.49,332.27Z" transform="translate(0 0)"/><path class="cls-4" d="M397.83,326.45l.25,4.78,3.43-3.37,1.9.73-5.27,5-1.41,3.67-2.09-.79,1.41-3.68-.49-7.35Z" transform="translate(0 0)"/><path class="cls-4" d="M444.91,393.43a4.8,4.8,0,0,1-1.9-6.49,2.57,2.57,0,0,1,.49-.68,7,7,0,0,1,3.55-1.59,6.35,6.35,0,0,1,3.86.18,4.81,4.81,0,0,1,1.41,7.24,6.83,6.83,0,0,1-3.55,1.59A7.62,7.62,0,0,1,444.91,393.43Zm.55-2.08a5,5,0,0,0,2.88-.06,6.73,6.73,0,0,0,2.7-1,2.06,2.06,0,0,0-.06-2.94,2.58,2.58,0,0,0-.56-.37,5,5,0,0,0-2.88.06,6.67,6.67,0,0,0-2.69,1,2.1,2.1,0,0,0,.06,2.94Z" transform="translate(0 0)"/><path class="cls-4" d="M454.47,398.09a5.46,5.46,0,0,1-.31,2.82,3.4,3.4,0,0,1-2.94,1.72,3.65,3.65,0,0,1-3.31-1.29,5.17,5.17,0,0,1-.8-2.7l-.06-.73-3.25.24-.18-2.2,10.54-.86Zm-5.58-.24.06.79a2,2,0,0,0,.43,1.29,2.12,2.12,0,0,0,1.6.43,2,2,0,0,0,1.53-.68,2.51,2.51,0,0,0,.18-1.34l-.06-.8Z" transform="translate(0 0)"/><path class="cls-4" d="M454.78,410.66h-1.84l.06-3.74h-2.39l-.06,3.18h-1.84l.06-3.18-2.76-.06-.06,3.92h-1.78l.06-6.13,10.61.12Z" transform="translate(0 0)"/><path class="cls-4" d="M447.85,414.76l-4-.43.24-2.14,10.54,1.1-.36,3.37a4.37,4.37,0,0,1-.86,2.58,3,3,0,0,1-2.76.91,3,3,0,0,1-2.82-2l-4.6,1.72.25-2.39,4.17-1.41Zm1.78.19-.13,1.22a1.91,1.91,0,0,0,.13,1.17,1.7,1.7,0,0,0,1.22.61,1.48,1.48,0,0,0,1.29-.37,1.64,1.64,0,0,0,.37-1l.12-1.29Z" transform="translate(0 0)"/><path class="cls-4" d="M442,426.59l2.39-.18.67-3.31L442.88,422l.37-1.9,9.75,5.27-.49,2.52-11,1Zm4.59-2.64-.49,2.33,4.42-.3Z" transform="translate(0 0)"/><path class="cls-4" d="M449.75,438.11l-1.78-.49.74-2.39-8.4-2.45.61-2.15,8.4,2.46.68-2.39,1.77.49Z" transform="translate(0 0)"/><path class="cls-4" d="M446.93,445.59l-1.72-.61,1.35-3.5-2.27-.86-1.1,2.95-1.65-.62,1.1-2.94-2.58-1-1.4,3.68-1.72-.61,2.21-5.7,9.93,3.8Z" transform="translate(0 0)"/></svg>