<svg id="Layer_1" data-name="Layer 1" xmlns="http://www.w3.org/2000/svg" xmlns:xlink="http://www.w3.org/1999/xlink" viewBox="0 0 500 833"><defs><style>.cls-1{fill:url(#linear-gradient);}.cls-2{fill:#4f7997;}.cls-2,.cls-3{stroke:#fff;stroke-miterlimit:10;stroke-width:1.5px;}.cls-3{fill:#f08220;}</style><linearGradient id="linear-gradient" x1="436.71" y1="784.22" x2="210.34" y2="338.4" gradientUnits="userSpaceOnUse"><stop offset="0" stop-color="#fcd6b6"/><stop offset="0.31" stop-color="#f7b67d"/><stop offset="0.62" stop-color="#f39a4b"/><stop offset="0.86" stop-color="#f1892c"/><stop offset="0.99" stop-color="#f08220"/></linearGradient></defs><rect class="cls-1" width="500" height="833"/><path class="cls-2" d="M226.93,591.49V512.91c0-20-11.22-33.67-39.28-33.67-16,0-29.67,4-41.73,8.82l4,14.43c8.82-3.2,20-6.41,32.07-6.41,15.24,0,22.45,6.41,22.45,19.24v10.43h-8c-38.49,0-56.12,14.43-56.12,37.68,0,19.25,12,30.47,33.64,30.47,13.64,0,24.06-6.41,33.68-14.43l1.6,12h17.67Zm-22.44-25.66c-8,7.22-16.84,11.23-24.86,11.23-10.42,0-16.84-6.42-16.84-17.64s6.42-19.25,32.07-19.25h9.63v25.66Zm97.82,25.66H274.24L240.59,481.64h24.06L285.49,549l4.82,20c10.42-28.86,18.43-58.53,21.65-87.39H336c-6.42,36.08-17.64,75.37-33.65,109.85Zm129.89,0V512.91c0-20-11.23-33.67-39.29-33.67-16,0-29.67,4-41.7,8.82l3.21,14.43c9.62-3.2,20.84-6.41,32.87-6.41,15.24,0,22.45,6.41,22.45,19.24v10.43h-8c-38.49,0-56.12,14.43-56.12,37.68,0,19.25,11.22,30.47,32.87,30.47,14.44,0,24.86-6.41,34.48-14.43l1.61,12H432.2Zm-22.45-25.66c-8,7.22-16.84,11.23-24.86,11.23-10.42,0-16.84-6.42-16.84-17.64s6.42-19.25,32.07-19.25h9.63v25.66Zm-294.26,44.1c-6.42,9.62-16,16.84-28.07,20.85L77,618c8-4.81,16-12,19.25-18.44,3.21-5.61,4-13.63,4-32.07V442.35h24.06V565.83c0,24.86-2.41,34.48-8.82,44.1Z" transform="translate(0 0)"/><path class="cls-2" d="M216.07,383.7s-11.37,6.91,7.9,8.89c23.19,3,35.54,2.47,61.21-2.47a92.06,92.06,0,0,0,16.29,7.9c-57.75,24.69-130.83-1.47-85.41-14.32Zm-7.4-32.09S196.33,361,215.59,363c25.17,2.47,44.92,3,79-4a30.09,30.09,0,0,0,11.85,7.4c-69.61,20.74-147.61,2-97.76-14.81Zm136.26,56.27s8.39,6.91-9.38,12.35c-33.08,9.88-138.72,12.84-168.34,0-10.37-4.44,9.38-10.86,15.71-11.85a49.28,49.28,0,0,1,9.88-1.48c-11.36-7.9-75.53,16.29-32.58,23.19,118,19.26,215.25-8.39,184.63-22.21ZM221.41,318s-53.81,12.84-19.26,17.28c14.81,2,43.94,1.47,71.09-.49,22.21-2,44.44-5.92,44.44-5.92a119.73,119.73,0,0,0-13.33,6.91c-54.79,14.32-160,7.9-129.83-6.91,25.66-12.34,46.9-10.85,46.9-10.85Zm96.27,53.81C373,343.21,347.3,315.58,329.53,319a31.5,31.5,0,0,0-6.42,2,8.43,8.43,0,0,1,4.93-3.94c35-12.35,62.7,37-11.37,56.27a6.19,6.19,0,0,0,1-1.48Zm-90.82,78c53.31,3.45,134.77-2,136.74-27.17,0,0-3.94,9.89-43.93,17.28-45.42,8.39-101.7,7.39-134.78,2,0,0,6.91,5.91,42,7.9Z" transform="translate(0 0)"/><path class="cls-3" d="M284.2,155.13s30.61,31.1-29.12,78c-47.89,38-10.86,59.73,0,84.42-28.15-25.18-48.38-47.4-34.56-68.12C240.75,218.81,296.54,204.09,284.2,155.13ZM268.49,296.81c14.32,16.29-3.94,31.1-3.94,31.1s36.53-18.75,19.74-42c-15.3-22.21-27.16-33.08,37-70.1C321.31,215.85,220.11,241,268.49,296.81Z" transform="translate(0 0)"/></svg>