<svg id="Layer_1" data-name="Layer 1" xmlns="http://www.w3.org/2000/svg" xmlns:xlink="http://www.w3.org/1999/xlink" viewBox="0 0 601.62 449.73"><defs><style>.cls-1{fill:url(#linear-gradient);}.cls-2,.cls-9{fill:#dd0932;}.cls-2,.cls-3,.cls-4,.cls-5,.cls-7{stroke:#fff;}.cls-2,.cls-3,.cls-4,.cls-5,.cls-7,.cls-8{stroke-miterlimit:10;}.cls-3{fill:#f6df1c;}.cls-4,.cls-6{fill:#fff;}.cls-5{fill:#61b456;}.cls-7{fill:#8dc04f;}.cls-8{fill:#e30613;stroke:#fbdbdd;}.cls-10{fill:#010101;}.cls-11{fill:#e44e28;}.cls-12{fill:#1d1d1b;}</style><linearGradient id="linear-gradient" x1="109.21" y1="33.27" x2="537.19" y2="461.25" gradientUnits="userSpaceOnUse"><stop offset="0" stop-color="#f29296"/><stop offset="0.32" stop-color="#ec5c63"/><stop offset="0.63" stop-color="#e72d38"/><stop offset="0.86" stop-color="#e4111d"/><stop offset="1" stop-color="#e30613"/></linearGradient></defs><rect class="cls-1" width="601.62" height="449.73"/><polygon class="cls-2" points="294.44 136.56 231.7 172.79 168.96 136.56 168.96 64.11 231.7 27.89 294.44 64.11 294.44 136.56"/><polygon class="cls-3" points="220.97 192.03 158.23 155.8 95.49 192.03 95.49 264.47 158.23 300.7 220.97 264.47 220.97 192.03"/><polygon class="cls-4" points="293.95 312.41 231.21 276.19 168.46 312.41 168.46 384.86 231.21 421.08 293.95 384.86 293.95 312.41"/><polygon class="cls-5" points="439.49 311.07 376.74 274.85 314 311.07 314 383.52 376.74 419.74 439.48 383.52 439.49 311.07"/><polygon class="cls-6" points="507.38 189.53 444.63 153.31 381.89 189.53 381.89 261.98 444.63 298.21 507.38 261.98 507.38 189.53"/><polygon class="cls-7" points="440.13 65.01 377.39 28.79 314.65 65.01 314.65 137.46 377.39 173.68 440.13 137.46 440.13 65.01"/><polygon class="cls-8" points="364.47 188.29 301.73 152.07 238.99 188.29 238.99 260.74 301.73 296.96 364.47 260.74 364.47 188.29"/><polygon class="cls-9" points="230.99 52.72 230.99 52.72 230.99 52.72 186.31 68.66 193.13 127.73 230.99 148.71 230.99 148.71 230.99 148.71 268.86 127.73 275.67 68.66 230.99 52.72"/><path class="cls-6" d="M229.56,63.84l-27.93,62.63H212l5.62-14h23.71l5.61,14H257.4L229.56,63.84Zm8.16,40H221.4l8.16-19.63Z" transform="translate(1.43 -0.51)"/><path class="cls-6" d="M244.58,211.13h5.12L260,234.25l10.36-23.12h5.11v29.06h-4.62V220.13h-.21l-8.92,20.06h-3.44l-8.88-20.06h-.2v20.06h-4.63Z" transform="translate(1.43 -0.51)"/><path class="cls-6" d="M280,211.13h16v4.3H284.57v8.06h9.66v4.17h-9.66v8.23h11.79v4.3H280Z" transform="translate(1.43 -0.51)"/><path class="cls-6" d="M314.49,211.13l11.38,29.06h-5l-2.25-5.94h-13l-2.25,5.94h-5l11.34-29.06ZM317,230l-4.92-13-4.91,13Z" transform="translate(1.43 -0.51)"/><path class="cls-6" d="M328.73,211.13h4.63l14.73,21.4h.2v-21.4h4.63v29.06h-4.67l-14.69-21.41h-.2v21.41h-4.63Z" transform="translate(1.43 -0.51)"/><path class="cls-6" d="M372.53,54.46a7.72,7.72,0,0,1,7.58,0l34.81,19.62a7.18,7.18,0,0,1,3.62,6.16V119.6a7.25,7.25,0,0,1-3.88,6.29L380,145.43a7.61,7.61,0,0,1-7.7-.21l-10.39-6a6.28,6.28,0,0,1-2-1.44c.45-.6,1.24-.67,1.88-.93a21.76,21.76,0,0,0,4.09-1.92A1,1,0,0,1,367,135l8.86,5.12c.64.37,1.28-.11,1.82-.42l34-19.19a1.12,1.12,0,0,0,.62-1.11v-39a1.22,1.22,0,0,0-.73-1.22L377,59.75a1.21,1.21,0,0,0-1.36,0L341.15,79.24a1.2,1.2,0,0,0-.73,1.21v39a1.1,1.1,0,0,0,.63,1.09l9.22,5.2a7.21,7.21,0,0,0,5.76.77,4.36,4.36,0,0,0,2.83-4.1V83.65a1,1,0,0,1,1.06-1h4.43a1,1,0,0,1,1,1.18v39c0,3.46-1.42,7.23-4.62,8.93-3.95,2-8.83,1.61-12.73-.35l-9.91-5.48a7.13,7.13,0,0,1-3.88-6.3V80.27A7.19,7.19,0,0,1,337.9,74Zm10,27.27c5-.29,10.42-.19,14.95,2.29A11.33,11.33,0,0,1,403,93.81a1.05,1.05,0,0,1-1.15.78c-1.46,0-2.92,0-4.39,0a1.12,1.12,0,0,1-1.05-1.1,6.68,6.68,0,0,0-3.2-4.61c-2.69-1.35-5.82-1.28-8.75-1.25-2.15.12-4.45.3-6.27,1.56a4,4,0,0,0-1.32,4.44c.47,1.11,1.76,1.47,2.81,1.8,6.07,1.59,12.5,1.46,18.45,3.52,2.46.85,4.87,2.51,5.72,5.09a10.86,10.86,0,0,1-1.84,10.36,14.68,14.68,0,0,1-7.79,4.21,37.21,37.21,0,0,1-11.77.49c-3.69-.42-7.52-1.38-10.36-3.89a10.89,10.89,0,0,1-3.5-8.57,1,1,0,0,1,1.08-.87h4.37a1,1,0,0,1,1.05,1,6.61,6.61,0,0,0,2.49,4.67c3,1.93,6.75,1.79,10.17,1.85,2.83-.13,6-.17,8.33-2a4.59,4.59,0,0,0,1.26-4.4c-.36-1.3-1.75-1.9-2.92-2.33-6-1.9-12.49-1.21-18.42-3.35-2.41-.85-4.74-2.46-5.66-4.94a10.1,10.1,0,0,1,2-10.51c2.62-2.67,6.47-3.7,10.11-4.07Z" transform="translate(1.43 -0.51)"/><path class="cls-10" d="M427.33,240.34V220.15h1.1v3.18a3,3,0,0,0,.35-.45,5.44,5.44,0,0,1,5-3.07,5.82,5.82,0,0,1,5.72,3.07,9.87,9.87,0,0,1,.24,9.05,6.13,6.13,0,0,1-6.79,3.27,5.48,5.48,0,0,1-4.39-2.89v8Zm1.1-13.05.24,2.38a5,5,0,0,0,4.54,4.59,5.14,5.14,0,0,0,5.65-3.28,8.72,8.72,0,0,0-.19-7.21,5,5,0,0,0-5.32-2.94,4.93,4.93,0,0,0-4.39,3.63,24.74,24.74,0,0,0-.53,2.83ZM463,230a5.9,5.9,0,0,1-5.77,5.22c-4.59.23-6.75-2.82-7.09-6.34a10.15,10.15,0,0,1,.89-5.59,6.25,6.25,0,0,1,6.5-3.48,6,6,0,0,1,5.29,4.54,29.46,29.46,0,0,1,.51,3.35H451.3c-.22,3.19,1.49,5.76,3.93,6.38,3,.74,5.61-.57,6.55-3.45.21-.74.59-.84,1.26-.63Zm-11.73-3.32h10.78c-.06-3.4-2.18-5.87-5.05-5.9C453.79,220.77,451.44,223.14,451.3,226.72Zm14,3.39h1.06a4.26,4.26,0,0,0,2.49,3.66,6.51,6.51,0,0,0,5.65-.15,2.54,2.54,0,0,0,1.49-2.5,2.29,2.29,0,0,0-1.55-2.3c-1.16-.44-2.4-.68-3.59-1.06a26,26,0,0,1-3.61-1.32c-1.91-.93-2-4.56.14-5.71a7.62,7.62,0,0,1,7.28-.11,3.84,3.84,0,0,1,1.93,3.91h-.9c0-.05-.08-.08-.08-.13-.12-2.89-2.55-3.79-5.16-3.54a6.71,6.71,0,0,0-2.23.68,2.21,2.21,0,0,0-1.3,2.23,2.24,2.24,0,0,0,1.49,2.11c1.14.42,2.35.68,3.53,1l2.85.75a3.37,3.37,0,0,1,2.31,3,3.61,3.61,0,0,1-1.93,3.73c-2.49,1.41-6.6,1-8.42-.75a4.94,4.94,0,0,1-1.45-3.54Zm25.21-5.58h-1a1.87,1.87,0,0,0-.07-.37,3.23,3.23,0,0,0-2.64-3.11,6.45,6.45,0,0,0-4.18.2,2.55,2.55,0,0,0-1.84,2.42,2.34,2.34,0,0,0,1.79,2.36l4.53,1.16a14.28,14.28,0,0,1,1.45.44A3.76,3.76,0,0,1,491,231a3.72,3.72,0,0,1-2.28,3.54,8.3,8.3,0,0,1-6.71.07,4.63,4.63,0,0,1-2.8-4.52h1a5.43,5.43,0,0,0,8.27,3.46,2.66,2.66,0,0,0,1.43-2.49,2.3,2.3,0,0,0-1.57-2.29c-1.16-.43-2.4-.66-3.59-1.05a26.16,26.16,0,0,1-3.63-1.3c-1.86-.92-2-4.52.12-5.67a7.49,7.49,0,0,1,7.39-.08,3.88,3.88,0,0,1,1.87,3.82Zm-64.94,10.36a1.71,1.71,0,0,1-2.12-.8l-3.85-5.33L419,228l-4.47,6.09a1.65,1.65,0,0,1-2,.79l5.77-7.74-5.37-7a1.78,1.78,0,0,1,2.13.74l4,5.4,4-5.38a1.6,1.6,0,0,1,2-.74L423,223l-2.82,3.67a.74.74,0,0,0-.06,1l.06.06,5.37,7.16ZM450,220.09v1.06a5.41,5.41,0,0,0-5.75,5c0,.18,0,.36,0,.54v8.2h-1.06V220.16h1.05v3c1.29-2.21,3.28-3,5.78-3.09Zm-51.29,7,.47-2.32a6.46,6.46,0,0,1,10.17-3.65c2.11,1.66,2.64,4,2.54,6.67H400c-.19,4.74,3.23,7.6,7.6,6.14a4.56,4.56,0,0,0,2.89-3.21c.23-.75.61-.87,1.31-.66a6.05,6.05,0,0,1-2.89,4.42,7,7,0,0,1-8.17-1,7.35,7.35,0,0,1-1.83-4.31,3.12,3.12,0,0,0-.15-.75c0-.44,0-.87,0-1.29Zm1.26-.32h10.79c-.07-3.44-2.24-5.88-5.13-5.9-3.22,0-5.52,2.34-5.66,5.88Z" transform="translate(1.43 -0.51)"/><path class="cls-6" d="M194.75,391.79l-7.55-84.73h83l-7.56,84.71-34,9.42Z" transform="translate(1.43 -0.51)"/><path class="cls-11" d="M228.67,324.38h-26l2.81,31.42H228.7V345.41H215L214,334.77h14.7V324.38Zm0,48h0l-11.58-3.13-.73-8.28H205.91l1.46,16.31,21.28,5.88h0Z" transform="translate(1.43 -0.51)"/><path class="cls-11" d="M228.67,355.8h12.79l-1.17,13.48-11.6,3.12v10.81l21.31-5.9,2.85-31.9H228.7Zm25.78-28.63.24-2.79h-26v10.39h25.1l.2-2.33Z" transform="translate(1.43 -0.51)"/><path class="cls-6" d="M382.36,315.15c-3.64-4.3-6.77-8.66-7.41-9.57a.18.18,0,0,0-.24,0c-.64.91-3.77,5.27-7.41,9.57-31.22,39.65,4.92,66.41,4.92,66.41l.31.2c.26,4.13.94,10.07.94,10.07h2.69s.68-5.91.95-10.07l.3-.24S413.59,354.8,382.36,315.15ZM374.82,381a14.65,14.65,0,0,1-2.06-2.08v-.07l1.95-43.17a.11.11,0,0,1,.21,0l1.95,43.17v.07A14.73,14.73,0,0,1,374.82,381Z" transform="translate(1.43 -0.51)"/><path class="cls-12" d="M120.1,244.39l6.9-6.95c1.1,1.4,3.11,3.66,6.34,3.66.73,0,5.68.3,5.68-7V207.54h10.73v28.07c0,12.08-8.54,15.86-15.86,15.86C127.36,251.47,122.79,248.54,120.1,244.39Z" transform="translate(1.43 -0.51)"/><path class="cls-12" d="M153.59,240.55l8.67-4c1.22,2.5,3.17,5.31,7,5.31,2.5,0,4.76-1.22,4.76-4.15,0-2.07-1-3.11-4.82-4.64l-2.69-1c-5.61-2.26-11.28-5.37-11.28-12.75,0-7.69,6.47-12.33,14.09-12.33a15.71,15.71,0,0,1,14.58,9.28l-7.93,4.51c-1.89-3.17-4-4.33-6.22-4.33s-4,1-4,3.05c0,1.59.92,2.87,5.31,4.58l2.93,1.15c8,3.24,11.16,6.84,11.16,12.63,0,9.34-8.36,13.67-15.74,13.67C161.71,251.47,155.24,246.89,153.59,240.55Z" transform="translate(1.43 -0.51)"/></svg>