<svg id="Layer_1" data-name="Layer 1" xmlns="http://www.w3.org/2000/svg" xmlns:xlink="http://www.w3.org/1999/xlink" viewBox="0 0 601.62 449.73"><defs><style>.cls-1{fill:url(#linear-gradient);}.cls-2,.cls-4{fill:#fff;}.cls-11,.cls-2,.cls-3,.cls-5{stroke:#fff;}.cls-10,.cls-11,.cls-2,.cls-3,.cls-5,.cls-6{stroke-miterlimit:10;}.cls-3{fill:#f6df1c;}.cls-5{fill:#8dc04f;}.cls-6{fill:#077faf;stroke:#fbdbdd;}.cls-7{fill:#010101;}.cls-8{fill:#e44e28;}.cls-9{fill:#55c3ea;}.cls-10{fill:none;stroke:#55c3ea;stroke-width:2.73px;}.cls-11{fill:#61b456;}.cls-12{fill:#1d1d1b;}</style><linearGradient id="linear-gradient" x1="59.66" y1="104.92" x2="598.33" y2="372.84" gradientUnits="userSpaceOnUse"><stop offset="0" stop-color="#007ea1"/><stop offset="0.45" stop-color="#2ea3c8"/><stop offset="0.8" stop-color="#4abae1"/><stop offset="1" stop-color="#55c3ea"/></linearGradient></defs><rect class="cls-1" width="601.62" height="449.73"/><polygon class="cls-2" points="293.66 136.52 230.89 172.76 168.11 136.52 168.11 64.03 230.89 27.79 293.66 64.03 293.66 136.52"/><polygon class="cls-3" points="220.15 192.01 157.38 155.77 94.61 192.01 94.61 264.49 157.38 300.74 220.15 264.49 220.15 192.01"/><polygon class="cls-4" points="293.17 312.46 230.39 276.21 167.62 312.46 167.62 384.94 230.39 421.19 293.17 384.94 293.17 312.46"/><polygon class="cls-4" points="506.7 189.52 443.93 153.27 381.15 189.52 381.15 262 443.93 298.25 506.7 262 506.7 189.52"/><polygon class="cls-5" points="439.43 64.93 376.65 28.68 313.88 64.93 313.88 137.41 376.65 173.66 439.43 137.41 439.43 64.93"/><polygon class="cls-6" points="363.73 188.27 300.95 152.03 238.18 188.27 238.18 260.76 300.95 297 363.73 260.76 363.73 188.27"/><path class="cls-4" d="M247,210.27h5.12L262.4,233.4l10.36-23.13h5.12v29.07h-4.63V219.27h-.2l-8.93,20.07h-3.44l-8.89-20.07h-.2v20.07H247Z" transform="translate(0.65 -0.51)"/><path class="cls-4" d="M282.34,210.27h16.05v4.3H287v8.06h9.66v4.18H287V235h11.79v4.3H282.34Z" transform="translate(0.65 -0.51)"/><path class="cls-4" d="M312.48,229.39h-5.24v10h-4.63V210.27h9.83c6.14,0,10.07,3.93,10.07,9.7,0,4.22-2.13,7.33-5.69,8.68l7,10.69h-4.95Zm-.57-4c3.56,0,5.89-1.64,5.89-5.37s-2.33-5.4-5.89-5.4h-4.67v10.77Z" transform="translate(0.65 -0.51)"/><path class="cls-4" d="M327.42,210.27h4.63l14.74,21.41H347V210.27h4.63v29.07H347l-14.7-21.42h-.21v21.42h-4.63Z" transform="translate(0.65 -0.51)"/><path class="cls-4" d="M370.52,54.37a7.72,7.72,0,0,1,7.58,0L412.94,74a7.18,7.18,0,0,1,3.62,6.17v39.37a7.25,7.25,0,0,1-3.89,6.3L378,145.39a7.59,7.59,0,0,1-7.69-.21l-10.4-6a6.2,6.2,0,0,1-2-1.45c.45-.59,1.23-.67,1.87-.93a22.54,22.54,0,0,0,4.11-1.91.92.92,0,0,1,1.06.06l8.87,5.13c.63.36,1.27-.12,1.82-.42l34-19.2a1.14,1.14,0,0,0,.62-1.11v-39a1.23,1.23,0,0,0-.73-1.21L375,59.67a1.19,1.19,0,0,0-1.36,0L339.13,79.17a1.19,1.19,0,0,0-.73,1.21v39a1.08,1.08,0,0,0,.63,1.09l9.22,5.21a7.22,7.22,0,0,0,5.76.77,4.38,4.38,0,0,0,2.84-4.11V83.57a1,1,0,0,1,1.05-1h4.44a1,1,0,0,1,1,1.18v39c0,3.46-1.42,7.23-4.63,8.93-3.94,2-8.83,1.61-12.73-.35L336,125.87a7.15,7.15,0,0,1-3.89-6.3V80.2A7.18,7.18,0,0,1,335.88,74Zm10.05,27.29c5-.29,10.43-.19,15,2.29a11.33,11.33,0,0,1,5.52,9.79,1.05,1.05,0,0,1-1.15.78c-1.46,0-2.93,0-4.39,0-.62,0-1-.55-1.06-1.09a6.69,6.69,0,0,0-3.19-4.62c-2.7-1.35-5.82-1.28-8.76-1.25-2.15.11-4.46.3-6.27,1.56a4,4,0,0,0-1.32,4.44c.46,1.11,1.75,1.47,2.81,1.81,6.07,1.58,12.5,1.45,18.46,3.52,2.46.85,4.87,2.5,5.72,5.09a10.89,10.89,0,0,1-1.84,10.37,14.69,14.69,0,0,1-7.8,4.2,37.56,37.56,0,0,1-11.78.5c-3.68-.42-7.51-1.39-10.35-3.9a10.83,10.83,0,0,1-3.5-8.57,1,1,0,0,1,1.07-.87h4.38a1,1,0,0,1,1.05,1,6.61,6.61,0,0,0,2.49,4.67c3,1.93,6.75,1.79,10.17,1.85,2.84-.13,6-.16,8.34-2a4.62,4.62,0,0,0,1.26-4.4c-.36-1.3-1.75-1.9-2.92-2.33-6-1.9-12.5-1.21-18.43-3.36a9,9,0,0,1-5.67-4.93,10.11,10.11,0,0,1,2-10.52C373,83,376.87,82,380.51,81.59Z" transform="translate(0.65 -0.51)"/><path class="cls-7" d="M427.4,240.35v-20.2h1.09v3.18a3.94,3.94,0,0,0,.36-.45,5.42,5.42,0,0,1,4.95-3.07,5.8,5.8,0,0,1,5.72,3.07,9.86,9.86,0,0,1,.24,9.06,6.13,6.13,0,0,1-6.79,3.27,5.52,5.52,0,0,1-4.39-2.89v8Zm1.09-13,.25,2.37a5,5,0,0,0,4.53,4.59,5.16,5.16,0,0,0,5.67-3.27,8.79,8.79,0,0,0-.2-7.22,5,5,0,0,0-5.32-2.94,4.92,4.92,0,0,0-4.39,3.63,26.85,26.85,0,0,0-.54,2.84ZM463.11,230a5.9,5.9,0,0,1-5.77,5.22c-4.59.23-6.75-2.82-7.09-6.34a10.15,10.15,0,0,1,.89-5.59,6.26,6.26,0,0,1,6.5-3.49,6,6,0,0,1,5.3,4.55,31.88,31.88,0,0,1,.51,3.35H451.38c-.22,3.2,1.49,5.76,3.93,6.38a5.15,5.15,0,0,0,6.55-3.45c.21-.73.59-.84,1.26-.63Zm-11.74-3.32h10.8c-.07-3.4-2.19-5.87-5.06-5.9C453.87,220.77,451.51,223.14,451.37,226.72Zm14,3.4h1a4.24,4.24,0,0,0,2.49,3.65,6.5,6.5,0,0,0,5.66-.15,2.54,2.54,0,0,0,1.49-2.5,2.29,2.29,0,0,0-1.55-2.3c-1.16-.44-2.4-.67-3.59-1a28.85,28.85,0,0,1-3.61-1.32c-1.91-.94-2-4.57.14-5.72a7.62,7.62,0,0,1,7.28-.11,3.85,3.85,0,0,1,1.94,3.91h-.91c0-.05-.08-.08-.08-.13-.12-2.89-2.55-3.8-5.16-3.54a6.54,6.54,0,0,0-2.24.68,2.22,2.22,0,0,0-1.29,2.23,2.24,2.24,0,0,0,1.49,2.11c1.14.42,2.35.68,3.53,1l2.85.75a3.37,3.37,0,0,1,2.31,3,3.58,3.58,0,0,1-1.93,3.73c-2.49,1.41-6.6,1-8.43-.74a5,5,0,0,1-1.44-3.55Zm25.22-5.59h-1a1.87,1.87,0,0,0-.07-.37,3.23,3.23,0,0,0-2.64-3.11,6.44,6.44,0,0,0-4.18.2,2.54,2.54,0,0,0-1.85,2.42,2.35,2.35,0,0,0,1.79,2.36l4.54,1.16a15.09,15.09,0,0,1,1.45.44,3.73,3.73,0,0,1,.19,7,8.3,8.3,0,0,1-6.71.06,4.66,4.66,0,0,1-2.81-4.52h1a5.44,5.44,0,0,0,8.28,3.47,2.68,2.68,0,0,0,1.43-2.5,2.31,2.31,0,0,0-1.57-2.29c-1.17-.43-2.4-.66-3.59-1.05a26.16,26.16,0,0,1-3.63-1.3c-1.87-.92-2-4.52.11-5.67a7.48,7.48,0,0,1,7.4-.08,3.88,3.88,0,0,1,1.87,3.82Zm-65,10.37a1.71,1.71,0,0,1-2.12-.81l-3.86-5.33-.56-.75-4.47,6.09a1.65,1.65,0,0,1-2,.79l5.77-7.73-5.37-7a1.78,1.78,0,0,1,2.13.74l4,5.4,4-5.38a1.59,1.59,0,0,1,2-.74L423,223l-2.82,3.67a.75.75,0,0,0-.06,1l.06.06,5.37,7.17Zm24.48-14.81v1a5.41,5.41,0,0,0-5.75,5.05,3.25,3.25,0,0,0,0,.54v8.21h-1.07V220.16h1.05v3c1.29-2.21,3.28-3,5.78-3.09Zm-51.32,7,.47-2.32a6.46,6.46,0,0,1,10.17-3.66c2.12,1.67,2.65,4,2.55,6.68H400c-.19,4.74,3.23,7.61,7.61,6.15a4.56,4.56,0,0,0,2.88-3.22c.24-.74.62-.87,1.32-.66a6.1,6.1,0,0,1-2.9,4.43,7,7,0,0,1-8.16-1.05,7.33,7.33,0,0,1-1.84-4.31,3,3,0,0,0-.15-.74c0-.45,0-.88,0-1.3Zm1.26-.32h10.8c-.07-3.44-2.24-5.88-5.13-5.9-3.23-.05-5.53,2.34-5.67,5.88Z" transform="translate(0.65 -0.51)"/><path class="cls-4" d="M195.79,390.48l-6.65-74.59h73.07l-6.65,74.57-29.93,8.3Z" transform="translate(0.65 -0.51)"/><path class="cls-8" d="M229.83,321.69H202.74l2.92,32.71h24.2V343.58H215.55l-1-11.07h15.3V321.69Zm0,49.95h0l-12-3.25-.76-8.63H206.14l1.52,17,22.15,6.13.05,0Z" transform="translate(0.65 -0.51)"/><path class="cls-8" d="M229.83,354.4h13.32l-1.23,14-12.06,3.26v11.25L252,376.78l3-33.2H229.86Zm26.83-29.81.26-2.9h-27.1V332.5H256l.21-2.43Z" transform="translate(0.65 -0.51)"/><circle class="cls-9" cx="231.03" cy="98.5" r="7.81"/><path class="cls-10" d="M230.38,83.13c10.49,0,20.23,1.5,27.58,4,8.86,3,14.3,7.67,14.3,11.86,0,4.36-5.77,9.26-15.28,12.41-7.18,2.39-16.64,3.63-26.6,3.63-10.22,0-19.88-1.17-27.15-3.65-9.2-3.15-14.74-8.12-14.74-12.39s5.2-8.74,13.93-11.78c7.37-2.57,17.36-4.11,28-4.11Z" transform="translate(0.65 -0.51)"/><path class="cls-10" d="M216.54,91.12C221.79,82,228,74.34,233.82,69.23c7.07-6.14,13.79-8.55,17.41-6.46,3.78,2.18,5.15,9.63,3.13,19.44-1.53,7.42-5.18,16.23-10.15,24.86-5.1,8.85-11,16.64-16.73,21.69-7.32,6.4-14.39,8.72-18.1,6.58s-5-8.87-3.24-18c1.45-7.67,5.11-17.1,10.4-26.27Z" transform="translate(0.65 -0.51)"/><path class="cls-10" d="M216.56,107.09C211.3,98,207.72,88.82,206.23,81.2c-1.8-9.2-.53-16.22,3.09-18.32,3.78-2.18,10.92.35,18.41,7,5.66,5,11.47,12.59,16.46,21.21,5.12,8.84,8.95,17.79,10.45,25.33,1.88,9.53.36,16.82-3.35,19s-10.16-.12-17.17-6.15c-5.92-5.1-12.25-13-17.56-22.14Z" transform="translate(0.65 -0.51)"/><polygon class="cls-11" points="437.16 313.77 374.42 277.55 311.68 313.77 311.68 386.22 374.42 422.44 437.16 386.22 437.16 313.77"/><path class="cls-4" d="M382.35,314.79c-3.64-4.3-6.77-8.66-7.41-9.57a.18.18,0,0,0-.24,0c-.64.91-3.77,5.27-7.41,9.57-31.22,39.65,4.92,66.41,4.92,66.41l.3.2c.27,4.13.95,10.07.95,10.07h2.69s.67-5.91.94-10.07l.31-.24S413.57,354.44,382.35,314.79Zm-7.55,65.8a14.73,14.73,0,0,1-2.05-2.08v-.07l1.95-43.17a.1.1,0,0,1,.2,0l2,43.17v.07A14.65,14.65,0,0,1,374.8,380.59Z" transform="translate(0.65 -0.51)"/><path class="cls-12" d="M122,246.72l6.9-6.95c1.09,1.4,3.11,3.66,6.34,3.66.73,0,5.67.3,5.67-7V209.88h10.74v28.06c0,12.08-8.54,15.86-15.86,15.86C129.28,253.8,124.71,250.87,122,246.72Z" transform="translate(0.65 -0.51)"/><path class="cls-12" d="M155.51,242.88l8.66-4c1.22,2.5,3.18,5.31,7,5.31,2.5,0,4.76-1.22,4.76-4.15,0-2.07-1-3.11-4.82-4.64l-2.69-1c-5.61-2.26-11.28-5.37-11.28-12.75,0-7.69,6.46-12.32,14.09-12.32a15.71,15.71,0,0,1,14.58,9.27l-7.93,4.51c-1.89-3.17-4-4.33-6.22-4.33s-4,1-4,3.05c0,1.59.92,2.87,5.31,4.58l2.93,1.16c8,3.23,11.16,6.83,11.16,12.62,0,9.34-8.36,13.67-15.74,13.67C163.63,253.8,157.16,249.22,155.51,242.88Z" transform="translate(0.65 -0.51)"/></svg>