<svg id="Layer_1" data-name="Layer 1" xmlns="http://www.w3.org/2000/svg" xmlns:xlink="http://www.w3.org/1999/xlink" viewBox="0 0 600.19 448.66"><defs><style>.cls-1{fill:url(#linear-gradient);}.cls-11,.cls-2{fill:#3655a2;}.cls-2,.cls-3,.cls-4,.cls-5,.cls-6,.cls-7,.cls-8{stroke:#fff;stroke-miterlimit:10;}.cls-2,.cls-3,.cls-5,.cls-6,.cls-7,.cls-8{stroke-width:2px;}.cls-3{fill:#f6df1c;}.cls-13,.cls-4,.cls-9{fill:#fff;}.cls-5{fill:#0a2e21;}.cls-6{fill:#06688d;}.cls-7{fill:url(#linear-gradient-2);}.cls-8{fill:#4f7997;}.cls-10{fill:#e44e28;}.cls-12{fill:#ebebeb;}.cls-13{fill-rule:evenodd;}.cls-14{fill:url(#linear-gradient-3);}.cls-15{fill:url(#linear-gradient-4);}.cls-16{isolation:isolate;opacity:0.44;fill:url(#radial-gradient);}.cls-17{fill:#1d1d1b;}</style><linearGradient id="linear-gradient" x1="108.95" y1="33.19" x2="535.91" y2="460.15" gradientUnits="userSpaceOnUse"><stop offset="0" stop-color="#fff"/><stop offset="0.23" stop-color="#c1d5e3"/><stop offset="0.5" stop-color="#82aac6"/><stop offset="0.73" stop-color="#538ab1"/><stop offset="0.9" stop-color="#3776a4"/><stop offset="1" stop-color="#2c6f9f"/></linearGradient><linearGradient id="linear-gradient-2" x1="313.22" y1="101.08" x2="438.7" y2="101.08" gradientUnits="userSpaceOnUse"><stop offset="0" stop-color="#5f4796"/><stop offset="1" stop-color="#4d4696"/></linearGradient><linearGradient id="linear-gradient-3" x1="659.66" y1="747.07" x2="734.83" y2="682.39" gradientTransform="matrix(0.56, 0, 0, -0.57, -110.99, 612.89)" gradientUnits="userSpaceOnUse"><stop offset="0" stop-color="#5ca0d5"/><stop offset="1" stop-color="#316a99"/></linearGradient><linearGradient id="linear-gradient-4" x1="763.89" y1="643.25" x2="737.05" y2="681.23" gradientTransform="matrix(0.56, 0, 0, -0.57, -110.99, 612.89)" gradientUnits="userSpaceOnUse"><stop offset="0" stop-color="#ffd43e"/><stop offset="1" stop-color="#ffe975"/></linearGradient><radialGradient id="radial-gradient" cx="987.89" cy="-5.27" r="20.02" gradientTransform="matrix(0, -0.24, -1.05, 0, 294.9, 510.79)" gradientUnits="userSpaceOnUse"><stop offset="0" stop-color="#b8b8b8" stop-opacity="0.5"/><stop offset="1" stop-color="#7f8080" stop-opacity="0"/></radialGradient></defs><rect class="cls-1" width="600.19" height="448.66"/><polygon class="cls-2" points="291.3 136.41 229.41 172.63 167.53 136.41 167.53 63.96 229.41 27.73 291.3 63.96 291.3 136.41"/><polygon class="cls-3" points="219.54 191.45 156.8 155.22 94.06 191.45 94.06 263.89 156.8 300.12 219.54 263.89 219.54 191.45"/><polygon class="cls-4" points="292.51 312.25 229.77 276.03 167.03 312.25 167.03 384.7 229.77 420.93 292.51 384.7 292.51 312.25"/><polygon class="cls-5" points="438.69 311.23 375.95 275.01 313.21 311.23 313.21 383.68 375.95 419.9 438.69 383.68 438.69 311.23"/><polygon class="cls-6" points="505.94 189.38 443.2 153.15 380.46 189.38 380.46 261.83 443.2 298.05 505.94 261.83 505.94 189.38"/><polygon class="cls-7" points="438.7 64.85 375.96 28.63 313.22 64.85 313.22 137.3 375.96 173.53 438.7 137.3 438.7 64.85"/><polygon class="cls-8" points="363.04 188.13 300.3 151.91 237.56 188.13 237.56 260.58 300.3 296.81 363.04 260.58 363.04 188.13"/><path class="cls-9" d="M194.75,391.79l-7.55-84.73h83l-7.56,84.71-34,9.42Z" transform="translate(0 -0.67)"/><path class="cls-10" d="M228.67,324.38h-26l2.81,31.42H228.7V345.41H215L214,334.77h14.7V324.38Zm0,48h0l-11.58-3.13-.73-8.28H205.91l1.46,16.31,21.28,5.88h0Z" transform="translate(0 -0.67)"/><path class="cls-10" d="M228.67,355.8h12.79l-1.17,13.48-11.6,3.12v10.81l21.31-5.9,2.85-31.9H228.7Zm25.78-28.63.24-2.79h-26v10.39h25.1l.2-2.33Z" transform="translate(0 -0.67)"/><g id="layer1"><polygon id="polygon2989" class="cls-11" points="271.29 54.24 263.45 142.37 228.58 152.16 193.87 142.37 186.03 54.24 271.29 54.24"/><polygon id="polygon2993" class="cls-12" points="228.58 94.18 203.83 94.18 204.74 104.89 228.58 104.89 228.58 94.18"/><polygon id="polygon2995" class="cls-12" points="228.58 72.3 228.58 72.3 201.87 72.3 202.93 83.01 228.58 83.01 228.58 72.3"/><polygon id="polygon2997" class="cls-12" points="205.34 110.4 206.7 127.23 228.58 133.5 228.58 133.5 228.58 122.18 228.58 122.18 216.81 118.96 215.91 110.4 210.17 110.4 205.34 110.4"/><polygon id="polygon3005" class="cls-9" points="241.71 104.89 240.51 118.96 228.58 122.18 228.58 133.5 250.47 127.23 250.62 125.54 253.18 97.08 253.33 94.18 255.3 72.3 228.58 72.3 228.58 83.01 243.68 83.01 242.62 94.18 228.58 94.18 228.58 104.89 241.71 104.89"/></g><path class="cls-13" d="M473.66,244a22.65,22.65,0,0,0-9.51,1.36c-.74.29-1.91.29-2,1.22.39.39.44,1,.78,1.56a11.68,11.68,0,0,0,2.55,3l3.14,2.24c1.91,1.16,4.06,1.85,5.93,3,1.07.68,2.15,1.55,3.23,2.29.55.38.88,1,1.57,1.26v-.15c-.34-.43-.44-1.07-.78-1.55l-1.48-1.42A23,23,0,0,0,472,251.9c-1.57-1.08-5-2.54-5.64-4.34l-.09-.11a20.7,20.7,0,0,0,3.38-.78c1.67-.43,3.18-.34,4.9-.78l2.35-.68v-.43c-.88-.88-1.52-2.05-2.45-2.88a65.85,65.85,0,0,0-8.09-6c-1.51-1-3.48-1.6-5.09-2.43-.59-.29-1.57-.44-1.91-.93a18.7,18.7,0,0,1-2-3.75l-4-8.47a50.67,50.67,0,0,0-2.5-5.55c-5.05-8.28-10.54-13.3-19-18.21a23.33,23.33,0,0,0-6.26-2l-3.68-.2a19,19,0,0,1-2.25-1.7c-2.8-1.76-10-5.55-12.06-.55-1.32,3.17,2,6.28,3.07,7.89a23,23,0,0,1,2.51,3.65c.33.83.43,1.71.78,2.58a57,57,0,0,0,2.55,6.53,24.13,24.13,0,0,0,1.81,3c.39.55,1.08.78,1.22,1.66-.68,1-.73,2.43-1.12,3.65-1.77,5.5-1.08,12.32,1.42,16.37.78,1.22,2.63,3.9,5.14,2.87,2.21-.87,1.72-3.65,2.35-6.08.15-.59.05-1,.35-1.37V233l2,4a27.83,27.83,0,0,0,6.37,6.53c1.17.88,2.1,2.39,3.57,2.92v-.14h-.09a5.57,5.57,0,0,0-1.13-1,24,24,0,0,1-2.55-2.92,63.18,63.18,0,0,1-5.49-8.86c-.78-1.51-1.47-3.17-2.1-4.68-.3-.58-.3-1.46-.79-1.75a18.74,18.74,0,0,0-2.35,3.31c-.93,2.09-1,4.68-1.37,7.35-.2.05-.11,0-.2.11-1.57-.39-2.11-2-2.69-3.36a21,21,0,0,1-.45-13c.35-1,1.82-4.24,1.23-5.21-.3-.93-1.27-1.46-1.81-2.19a20,20,0,0,1-1.77-3.12c-1.17-2.73-1.76-5.74-3-8.47a25.45,25.45,0,0,0-2.46-3.75,24.65,24.65,0,0,1-2.69-3.8c-.24-.55-.59-1.41-.19-2a.76.76,0,0,1,.68-.63c.64-.55,2.45.15,3.09.44a25.27,25.27,0,0,1,4.85,2.43c.68.49,1.42,1.41,2.3,1.66h1c1.57.34,3.33.11,4.8.54a31.33,31.33,0,0,1,7.06,3.37,43.27,43.27,0,0,1,15.29,16.65c.59,1.12.83,2.14,1.37,3.31,1,2.39,2.3,4.82,3.33,7.16a32,32,0,0,0,3.48,6.53c.74,1,3.68,1.56,5,2.09a34.06,34.06,0,0,1,3.38,1.37c1.67,1,3.33,2.19,4.9,3.31.78.58,3.23,1.8,3.38,2.77Zm-50-42.32a7.5,7.5,0,0,0-2,.24V202h.09a16.08,16.08,0,0,0,1.57,2l1.13,2.33.1-.1a2.77,2.77,0,0,0,1-2.44,8.92,8.92,0,0,1-.59-1c-.3-.49-.93-.73-1.33-1.12Z" transform="translate(0 -0.67)"/><path id="path1948" class="cls-14" d="M299.84,186.37a52.21,52.21,0,0,0-8.83.75c-7.83,1.38-9.25,4.28-9.25,9.61v7.05h18.49v2.35H274.82c-5.37,0-10.07,3.23-11.55,9.37a34.66,34.66,0,0,0,0,18.79c1.32,5.47,4.46,9.37,9.83,9.37h6.36v-8.44A11.75,11.75,0,0,1,291,223.73h18.46a9.32,9.32,0,0,0,9.25-9.39V196.73c0-5-4.23-8.77-9.25-9.61A56.9,56.9,0,0,0,299.84,186.37Zm-10,5.66a3.53,3.53,0,1,1-3.47,3.54A3.51,3.51,0,0,1,289.84,192Z" transform="translate(0 -0.67)"/><path id="path1950" class="cls-15" d="M321,206.13v8.21a11.86,11.86,0,0,1-11.55,11.72H291a9.43,9.43,0,0,0-9.25,9.39v17.61c0,5,4.36,7.95,9.25,9.39a30.93,30.93,0,0,0,18.46,0c4.66-1.35,9.25-4.06,9.25-9.39V246H300.25v-2.35H328c5.38,0,7.38-3.75,9.25-9.37,1.93-5.79,1.84-11.36,0-18.79-1.33-5.35-3.87-9.37-9.25-9.37Zm-10.38,44.58a3.52,3.52,0,1,1-3.47,3.51A3.49,3.49,0,0,1,310.64,250.71Z" transform="translate(0 -0.67)"/><ellipse id="path1894" class="cls-16" cx="300.46" cy="273.75" rx="24.78" ry="4.8"/><path class="cls-17" d="M146.82,234.63q0,8.51-4.43,12.85t-12.66,4.34a24.42,24.42,0,0,1-4.62-.45,22.66,22.66,0,0,1-4.8-1.55l3.34-8.4a17,17,0,0,0,2.55,1,9.16,9.16,0,0,0,2.55.33q3.51,0,5.2-1.89c1.12-1.27,1.69-3.36,1.69-6.26l.21-34h10.93Z" transform="translate(0 -0.67)"/><path class="cls-17" d="M154.73,247.57l4.53-8.58a28.76,28.76,0,0,0,6.65,3.11,21.31,21.31,0,0,0,6,.83q4.05,0,6.07-1.6a5.38,5.38,0,0,0,2-4.45,5.21,5.21,0,0,0-1.62-4.09c-1.08-1-3-1.8-5.87-2.48q-8.37-2-12.16-5.5t-3.8-9.83a14.06,14.06,0,0,1,4.9-10.81q4.91-4.44,13.77-4.45a31.35,31.35,0,0,1,14.09,3.34l-4.18,8.65a24.76,24.76,0,0,0-5.47-2.34,18,18,0,0,0-4.83-.72,9.28,9.28,0,0,0-5.43,1.39,4.61,4.61,0,0,0-2,4,4.18,4.18,0,0,0,1.77,3.62,20,20,0,0,0,6.38,2.39q8.13,1.91,11.75,5.58t3.62,10.31a14.64,14.64,0,0,1-5,11.52q-5,4.41-14.44,4.41a35.85,35.85,0,0,1-8.74-1.13A31.21,31.21,0,0,1,154.73,247.57Z" transform="translate(0 -0.67)"/><path class="cls-9" d="M334.16,328.23h6.23v28.85a40.79,40.79,0,0,1-8.09.85c-7.62,0-11.58-3.44-11.58-10,0-6.35,4.21-10.48,10.73-10.48a10.06,10.06,0,0,1,2.71.32Zm0,14.52a6.29,6.29,0,0,0-2.11-.32c-3.15,0-5,1.94-5,5.34s1.75,5.15,4.94,5.15a15.45,15.45,0,0,0,2.15-.17Zm16.15-4.89v14.45c0,5-.36,7.37-1.44,9.43s-2.35,3.24-5.1,4.62L338,363.6c2.75-1.29,4.08-2.42,4.94-4.17s1.17-3.84,1.17-9.27V337.87Zm-6.23-9.6h6.23v6.41h-6.23Zm10,11a18.77,18.77,0,0,1,8.26-1.86c3.2,0,5.3.85,6.23,2.51.52.93.69,2.15.69,4.74v12.68a69.49,69.49,0,0,1-8.91.69c-5.22,0-7.57-1.83-7.57-5.88,0-4.37,3.12-6.4,10.77-7v-1.38c0-1.13-.56-1.55-2.14-1.55a16.28,16.28,0,0,0-7.33,1.91v-4.82Zm9.76,9.92c-4.13.41-5.48,1.06-5.48,2.67,0,1.22.77,1.78,2.48,1.78a17.5,17.5,0,0,0,3-.28Zm8.47-10.36a37.45,37.45,0,0,1,9.8-1.42c3.19,0,5.5.73,6.88,2.15s1.7,2.79,1.7,5.91V357.7h-6.24v-12c0-2.39-.81-3.28-3-3.28a9.55,9.55,0,0,0-2.88.44v14.82H372.3Zm20.79,22.26a14.12,14.12,0,0,0,6.68,1.66c4.09,0,5.83-1.66,5.83-5.62V357a8.49,8.49,0,0,1-4.05.86c-5.47,0-8.94-3.61-8.94-9.32,0-7.08,5.14-11.09,14.25-11.09a39.07,39.07,0,0,1,8.13.89l-2.13,4.5c-1.66-.32-.14,0-1.39-.17v.65l.08,2.63,0,3.4c0,.85,0,1.7.09,2.55v1.7c0,5.35-.45,7.86-1.79,9.92q-2.91,4.56-10.08,4.55a17.69,17.69,0,0,1-6.72-1.22v-5.76Zm12.4-18.62h-.65a6.78,6.78,0,0,0-3.6.89c-1.5.85-2.27,2.39-2.27,4.58,0,3.11,1.55,4.89,4.3,4.89a7.66,7.66,0,0,0,2.34-.4v-2.15c0-.72,0-1.55,0-2.39l0-2.87,0-2.06v-.49Zm19.18-5.14c6.24,0,10,3.93,10,10.28,0,6.51-4,10.61-10.28,10.61s-10.08-3.93-10.08-10.24c0-6.56,4-10.65,10.32-10.65Zm-.12,15.87c2.39,0,3.81-2,3.81-5.42s-1.38-5.43-3.77-5.43-3.89,2-3.89,5.43S422.13,353.2,424.56,353.2Z" transform="translate(0 -0.67)"/><path class="cls-9" d="M357.7,129.18V75.26H377q8.88,0,13.67,3.4a11.13,11.13,0,0,1,4.79,9.65,11.8,11.8,0,0,1-2.57,7.57,13.58,13.58,0,0,1-6.64,4.57v.15a13,13,0,0,1,8.33,4.12,12.07,12.07,0,0,1,3.1,8.4,14.31,14.31,0,0,1-5.3,11.71q-5.29,4.35-14.32,4.35ZM369.43,84V97.44h5.45a9.15,9.15,0,0,0,6.05-1.84,6.28,6.28,0,0,0,2.22-5.11,5.64,5.64,0,0,0-2.23-4.89Q378.67,84,374.13,84Zm0,22.26v14.21h6.69a10.26,10.26,0,0,0,6.77-2A6.76,6.76,0,0,0,385.3,113a5.83,5.83,0,0,0-2.41-4.94,11.17,11.17,0,0,0-6.77-1.79Z" transform="translate(0 -0.67)"/></svg>