<svg id="Layer_1" data-name="Layer 1" xmlns="http://www.w3.org/2000/svg" xmlns:xlink="http://www.w3.org/1999/xlink" viewBox="0 0 500 833"><defs><style>.cls-1{fill:url(#linear-gradient);}.cls-2{fill:url(#linear-gradient-2);}.cls-3{fill:url(#linear-gradient-3);}.cls-4{opacity:0.44;isolation:isolate;fill:url(#radial-gradient);}</style><linearGradient id="linear-gradient" x1="436.71" y1="784.22" x2="210.34" y2="338.4" gradientUnits="userSpaceOnUse"><stop offset="0.01" stop-color="#3375a5"/><stop offset="0.18" stop-color="#3f80ae"/><stop offset="0.49" stop-color="#5e9cc6"/><stop offset="0.9" stop-color="#90caec"/><stop offset="1" stop-color="#9ed7f7"/></linearGradient><linearGradient id="linear-gradient-2" x1="295.02" y1="1923.92" x2="596.37" y2="1664.65" gradientTransform="matrix(0.56, 0, 0, -0.57, -70.99, 1314.92)" gradientUnits="userSpaceOnUse"><stop offset="0" stop-color="#5ca0d5"/><stop offset="1" stop-color="#316a99"/></linearGradient><linearGradient id="linear-gradient-3" x1="712.88" y1="1507.73" x2="605.26" y2="1659.98" gradientTransform="matrix(0.56, 0, 0, -0.57, -70.99, 1314.92)" gradientUnits="userSpaceOnUse"><stop offset="0" stop-color="#ffd43e"/><stop offset="1" stop-color="#ffe975"/></linearGradient><radialGradient id="radial-gradient" cx="1790.5" cy="457.05" r="80.27" gradientTransform="matrix(0, -0.24, -1.05, 0, 738.84, 995.96)" gradientUnits="userSpaceOnUse"><stop offset="0" stop-color="#b8b8b8" stop-opacity="0.5"/><stop offset="1" stop-color="#7f8080" stop-opacity="0"/></radialGradient></defs><rect class="cls-1" width="500" height="833"/><path id="path1948" class="cls-2" d="M254.32,213.34a211.15,211.15,0,0,0-35.42,3c-31.36,5.54-37.06,17.13-37.06,38.52v28.25H256v9.42H154c-21.54,0-40.4,12.94-46.3,37.57-6.81,28.23-7.11,45.85,0,75.33C113,427.4,125.58,443,147.12,443H172.6V409.17c0-24.46,21.17-46,46.3-46h74c20.61,0,37.06-17,37.06-37.66V254.89c0-20.08-16.94-35.17-37.06-38.52A231,231,0,0,0,254.32,213.34Zm-40.08,22.72a14.13,14.13,0,1,1-13.91,14.17A14.07,14.07,0,0,1,214.24,236.06Z" transform="translate(0 0)"/><path id="path1950" class="cls-3" d="M339.23,292.56v32.91c0,25.51-21.63,47-46.3,47h-74c-20.28,0-37.06,17.35-37.06,37.66V480.7c0,20.08,17.47,31.9,37.06,37.66,23.46,6.9,46,8.15,74,0C311.59,513,330,502.09,330,480.7V452.45H256V443H367.05c21.54,0,29.57-15,37.06-37.57,7.73-23.22,7.41-45.55,0-75.33-5.33-21.44-15.49-37.57-37.06-37.57ZM297.6,471.28a14.13,14.13,0,1,1-13.91,14.08A14,14,0,0,1,297.6,471.28Z" transform="translate(0 0)"/><ellipse id="path1894" class="cls-4" cx="256.8" cy="566.34" rx="99.32" ry="19.26"/></svg>