<svg id="Layer_1" data-name="Layer 1" xmlns="http://www.w3.org/2000/svg" xmlns:xlink="http://www.w3.org/1999/xlink" viewBox="0 0 601.62 449.73"><defs><style>.cls-1{fill:url(#linear-gradient);}.cls-2{fill:#2178bd;}.cls-13,.cls-2,.cls-3,.cls-4,.cls-5,.cls-6,.cls-7{stroke:#fff;}.cls-10,.cls-2,.cls-3,.cls-4,.cls-5,.cls-6,.cls-7{stroke-miterlimit:10;}.cls-3{fill:#f6df1c;}.cls-11,.cls-4{fill:#fff;}.cls-5{fill:#2b4b9b;}.cls-6{fill:#664d9a;}.cls-7{fill:url(#linear-gradient-2);}.cls-8{fill:#e44e28;}.cls-9{fill:#55c3ea;}.cls-10{fill:none;stroke:#55c3ea;stroke-width:2.73px;}.cls-12{fill:url(#linear-gradient-3);}.cls-13{fill:url(#linear-gradient-4);}.cls-14{fill:#1d1d1b;}</style><linearGradient id="linear-gradient" x1="59.66" y1="104.92" x2="598.33" y2="372.84" gradientUnits="userSpaceOnUse"><stop offset="0" stop-color="#007ea1"/><stop offset="0.45" stop-color="#2ea3c8"/><stop offset="0.8" stop-color="#4abae1"/><stop offset="1" stop-color="#55c3ea"/></linearGradient><linearGradient id="linear-gradient-2" x1="313.88" y1="101.17" x2="439.43" y2="101.17" gradientUnits="userSpaceOnUse"><stop offset="0" stop-color="#5f4796"/><stop offset="1" stop-color="#4d4696"/></linearGradient><linearGradient id="linear-gradient-3" x1="436.62" y1="746.4" x2="514.71" y2="684.42" gradientTransform="matrix(1, 0, 0, -1, -96, 819)" xlink:href="#linear-gradient-2"/><linearGradient id="linear-gradient-4" x1="460.64" y1="734.08" x2="478.09" y2="704.56" gradientTransform="matrix(1, 0, 0, -1, -96, 819)" gradientUnits="userSpaceOnUse"><stop offset="0" stop-color="#fff"/><stop offset="1" stop-color="#f0e5f2"/></linearGradient></defs><rect class="cls-1" width="601.62" height="449.73"/><polygon class="cls-2" points="292.76 138.31 229.99 174.56 167.21 138.31 167.21 65.83 229.99 29.58 292.76 65.83 292.76 138.31"/><polygon class="cls-3" points="220.15 192.01 157.38 155.77 94.61 192.01 94.61 264.49 157.38 300.74 220.15 264.49 220.15 192.01"/><polygon class="cls-4" points="291.63 312.97 228.86 276.72 166.09 312.97 166.09 385.45 228.86 421.69 291.63 385.45 291.63 312.97"/><polygon class="cls-5" points="438.78 311.11 376 274.87 313.23 311.11 313.23 383.6 376 419.84 438.78 383.6 438.78 311.11"/><polygon class="cls-6" points="506.61 189.92 443.84 153.68 381.06 189.92 381.06 262.41 443.84 298.65 506.61 262.41 506.61 189.92"/><polygon class="cls-7" points="439.43 64.93 376.65 28.68 313.88 64.93 313.88 137.41 376.65 173.66 439.43 137.41 439.43 64.93"/><polygon class="cls-4" points="363.73 188.27 300.95 152.03 238.18 188.27 238.18 260.76 300.95 297 363.73 260.76 363.73 188.27"/><path class="cls-8" d="M227.14,320.59H198.22l3.12,34.91h25.84V344H211.9l-1.06-11.83h16.34V320.59Zm0,53.32h-.05l-12.86-3.47-.82-9.21h-11.6l1.62,18.13,23.66,6.54.05,0Z" transform="translate(0.65 -0.51)"/><path class="cls-8" d="M227.14,355.5h14.22l-1.31,15L227.17,374v12l23.68-6.56L254,344H227.18Zm28.65-31.82.27-3.09H227.13v11.54H255l.23-2.59Z" transform="translate(0.65 -0.51)"/><circle class="cls-9" cx="300.66" cy="224.41" r="7.81"/><path class="cls-10" d="M300,209c10.49,0,20.24,1.5,27.59,4,8.85,3.05,14.3,7.67,14.3,11.86,0,4.36-5.77,9.27-15.28,12.42C319.42,239.73,310,241,300,241c-10.21,0-19.88-1.17-27.15-3.65-9.2-3.14-14.74-8.12-14.74-12.39s5.2-8.74,13.93-11.78c7.38-2.57,17.36-4.11,28-4.11Z" transform="translate(0.65 -0.51)"/><path class="cls-10" d="M286.17,217c5.24-9.09,11.41-16.78,17.28-21.88,7.06-6.15,13.78-8.56,17.41-6.47s5.15,9.63,3.12,19.44c-1.52,7.42-5.17,16.23-10.15,24.86-5.1,8.85-10.94,16.64-16.72,21.7-7.32,6.39-14.4,8.71-18.1,6.57s-5-8.87-3.25-17.95c1.46-7.67,5.12-17.09,10.41-26.27Z" transform="translate(0.65 -0.51)"/><path class="cls-10" d="M286.18,233c-5.25-9.07-8.83-18.27-10.33-25.89-1.79-9.19-.52-16.22,3.1-18.32,3.77-2.18,10.91.35,18.4,7,5.66,5,11.48,12.6,16.47,21.22,5.11,8.83,8.95,17.79,10.44,25.32,1.89,9.54.36,16.82-3.34,19s-10.16-.12-17.17-6.15c-5.92-5.09-12.26-13-17.57-22.14Z" transform="translate(0.65 -0.51)"/><path class="cls-11" d="M385.6,301.14l10.84,6.23-42.7,24.56-10.85-6.24Z" transform="translate(0.65 -0.51)"/><path class="cls-11" d="M396.88,308.68l-42.44,24.39v12.34L396.87,321Z" transform="translate(0.65 -0.51)"/><path class="cls-11" d="M379.81,332.76,354.53,347.3v12.34l25.28-14.53Z" transform="translate(0.65 -0.51)"/><path class="cls-11" d="M370.12,352.27l-15.65,9v12.34l15.65-9Z" transform="translate(0.65 -0.51)"/><path class="cls-11" d="M342.12,326.88,353,333.15V345.5l-10.91-6.27Z" transform="translate(0.65 -0.51)"/><path class="cls-11" d="M342.23,341,353,347.21v12.35l-10.78-6.2Z" transform="translate(0.65 -0.51)"/><path class="cls-11" d="M342.22,355.07l10.78,6.2v13.16l-10.78-6.2Z" transform="translate(0.65 -0.51)"/><path class="cls-11" d="M366.24,395.09l-10.84-6.23,42.21-24.28,10.85,6.24Z" transform="translate(0.65 -0.51)"/><path class="cls-11" d="M354.54,387.79l42.37-24.35V351.1l-42.37,24.35Z" transform="translate(0.65 -0.51)"/><path class="cls-11" d="M371.54,363.75l25.28-14.54V336.87L371.54,351.4Z" transform="translate(0.65 -0.51)"/><path class="cls-11" d="M381.23,344.24l15.65-9V322.9l-15.65,9Z" transform="translate(0.65 -0.51)"/><path class="cls-11" d="M409.23,369.71l-10.91-6.27V351.1l10.9,6.27Z" transform="translate(0.65 -0.51)"/><path class="cls-11" d="M409.12,355.49l-10.77-6.19V337l10.78,6.19Z" transform="translate(0.65 -0.51)"/><path class="cls-11" d="M409.13,341.44l-10.78-6.2V322.32l10.78,6.2Z" transform="translate(0.65 -0.51)"/><path class="cls-11" d="M459,242.08a5.85,5.85,0,0,0-.62-11.66h-.21a5.83,5.83,0,0,0-5.62,6,6,6,0,0,0,1.67,3.85c-3.54,7-8.95,12.07-17.07,16.33a28.14,28.14,0,0,1-17,3.23c-4.68-.63-8.32-2.71-10.61-6.14a15.28,15.28,0,0,1-.83-16.13,24.55,24.55,0,0,1,7.07-8.32c-.41-1.35-1-3.64-1.35-5.31-15.08,10.93-13.52,25.7-8.94,32.67,3.43,5.2,10.4,8.43,18.1,8.43a25.57,25.57,0,0,0,6.24-.73A39.92,39.92,0,0,0,459,242.08Zm18.31-12.91c-7.9-9.26-19.56-14.35-32.87-14.35h-1.67a5.7,5.7,0,0,0-5.1-3.13h-.2a5.83,5.83,0,0,0,.2,11.66h.21a5.87,5.87,0,0,0,5.1-3.54h1.87A39.67,39.67,0,0,1,467,226.57a27.92,27.92,0,0,1,11,13.32,14.4,14.4,0,0,1-.21,12.28,15.27,15.27,0,0,1-14.25,8.53,26.56,26.56,0,0,1-10.2-2.19,59.89,59.89,0,0,1-4.68,3.75,32.15,32.15,0,0,0,13.42,3.23c10,0,17.38-5.52,20.19-11,3-6,2.81-16.44-5-25.29Zm-52.85,14.67a5.84,5.84,0,0,0,5.83,5.62h.2a5.83,5.83,0,0,0-.2-11.65H430a1.84,1.84,0,0,0-.73.1,38.1,38.1,0,0,1-5.41-23.09A27.93,27.93,0,0,1,430,198.69c3-3.85,8.84-5.72,12.8-5.83,11-.21,15.71,13.53,16,19,1.35.31,3.64,1,5.2,1.56-1.25-16.85-11.65-25.59-21.64-25.59-9.36,0-18,6.76-21.43,16.75-4.79,13.32-1.67,26.11,4.16,36.21a4.67,4.67,0,0,0-.73,3Z" transform="translate(0.65 -0.51)"/><path class="cls-12" d="M341.48,74.63a8.9,8.9,0,0,1,8.7-9.31h52.25a8.9,8.9,0,0,1,8.7,9.31c-.16,4.65.05,10.67,1.57,15.58s4.08,8.05,8.28,8.45v4.53c-4.2.4-6.76,3.52-8.28,8.45s-1.73,10.93-1.57,15.58a8.91,8.91,0,0,1-8.7,9.31H350.18a8.91,8.91,0,0,1-8.7-9.31c.16-4.65-.05-10.67-1.56-15.58s-4.1-8-8.3-8.45V98.66c4.2-.4,6.78-3.52,8.3-8.45S341.64,79.28,341.48,74.63Z" transform="translate(0.65 -0.51)"/><path class="cls-13" d="M378.24,119.85c8.26,0,13.23-4,13.23-10.7,0-5-3.55-8.69-8.82-9.27v-.21a8.47,8.47,0,0,0,6.91-8.24c0-5.72-4.52-9.45-11.4-9.45H362.67v37.87ZM368.7,86.78h8c4.35,0,6.83,2,6.83,5.46,0,3.76-2.88,5.86-8.09,5.86H368.7Zm0,28.27V102.58h7.95c5.71,0,8.66,2.1,8.66,6.2s-2.87,6.27-8.31,6.27Z" transform="translate(0.65 -0.51)"/><path class="cls-11" d="M208,89.1H198V80.25h29.65V89.1h-10v34.47H208Z" transform="translate(0.65 -0.51)"/><path class="cls-11" d="M229.71,113.32l7.81-3.6c1.22,2.93,3.54,5.73,7.63,5.73,2.87,0,5.49-1.4,5.49-4.75,0-2.57-1.4-3.79-5.55-5.43l-2.69-1c-5.79-2.32-11.1-5.49-11.1-12.51,0-7.5,6.28-12.08,13.79-12.08a15.21,15.21,0,0,1,14.27,9.22l-7.13,4c-1.9-3.29-4.09-4.7-6.78-4.7s-4.63,1.22-4.63,3.67c0,1.89,1.1,3.35,5.61,5.18l2.93,1.16c7.81,3.11,11.28,6.65,11.28,12.63,0,9-8,13.36-15.37,13.36C237.65,124.18,231.36,119.66,229.71,113.32Z" transform="translate(0.65 -0.51)"/><path class="cls-14" d="M121.78,246.5l6.16-6.22c1.22,1.58,3.3,3.78,6.59,3.78,1.4,0,6.16-.24,6.16-7.5V209.41h9.64V237.9c0,11.65-8.11,15.43-15.31,15.43C128.8,253.33,124.34,250.53,121.78,246.5Z" transform="translate(0.65 -0.51)"/><path class="cls-14" d="M155.76,242.47l7.81-3.59c1.22,2.92,3.54,5.73,7.62,5.73,2.87,0,5.49-1.4,5.49-4.76,0-2.56-1.4-3.78-5.55-5.43l-2.68-1c-5.8-2.31-11.11-5.49-11.11-12.5,0-7.5,6.29-12.08,13.79-12.08A15.23,15.23,0,0,1,185.41,218l-7.14,4c-1.89-3.3-4.09-4.7-6.77-4.7s-4.64,1.22-4.64,3.66c0,1.89,1.1,3.36,5.61,5.19l2.93,1.16c7.81,3.11,11.29,6.65,11.29,12.62,0,9-8.05,13.36-15.38,13.36C163.69,253.33,157.41,248.82,155.76,242.47Z" transform="translate(0.65 -0.51)"/></svg>